<!-- icon666.com - MILLIONS vector ICONS FREE --><svg id="Layer_1" enable-background="new 0 0 69 69" viewBox="0 0 69 69" xmlns="http://www.w3.org/2000/svg"><g><g><g><path d="m19.388 11.952h15.333v2.711h-15.333z" fill="#dae8f0"></path></g></g><g><g><path d="m19.388 18.56h9.724v2.711h-9.724z" fill="#dae8f0"></path></g></g><path d="m55.20102 14.75047h-10.77582v-10.77582z" fill="#f69a8b"></path><path d="m66.49805 19.25562c0-1.62109-1.31445-2.93994-2.93066-2.93994h-7.36426v-1.56885c0-.18939-.10212-.51863-.30713-.71576l-10.76416-10.76325c-.08569-.08563-.18628-.14685-.29236-.19537-.02808-.01306-.05725-.02039-.08679-.03082-.08691-.03046-.17554-.04834-.26746-.05396-.02209-.00146-.04089-.01282-.06335-.01282-2.35736 0-20.99834 0-28.41699 0-1.7666 0-3.20312 1.43701-3.20312 3.20313v10.1377h-7.36427c-1.62109 0-2.93945 1.31885-2.93945 2.93994.0004 3.69582-.00145-13.38828.00391 36.14502 0 1.61963 1.31738 2.9375 2.9375 2.9375h24.3291l-1.17334 5.68701h-3.47998c-.55273 0-1 .44775-1 1s.44727 1 1 1h18.77344c.55273 0 1-.44775 1-1s-.44727-1-1-1h-3.479l-1.17334-5.68701h24.32813c1.62012 0 2.9375-1.31787 2.9375-2.9375-.00661-61.02014-.00249-22.91052-.00392-36.14502zm-2.93067-.93995c.5127 0 .93066.42188.93066.93994v30.95996h-8.29492v-31.8999zm-18.14258-11.92675 7.3623 7.36133h-7.3623zm-29.41992-1.41407h27.41992v9.77539c0 .55225.44727 1 1 1h9.77832v34.46533h-39.40136v-44.03759c0-.66358.54004-1.20313 1.20312-1.20313zm-11.50683 14.28077c0-.51807.42188-.93994.93945-.93994h7.36426v31.8999h-8.30371zm33.86914 44.76953h-7.72949l1.17285-5.68701h5.38379zm26.13476-8.62452c0 .51709-.4209.9375-.9375.9375-21.80967 0-38.38036 0-58.125 0-.5166 0-.9375-.42041-.9375-.9375v-3.18018h60z" fill="#626975"></path><g><path d="m20.375 37.017h4.051v10.014h-4.051z" fill="#5bbe88"></path></g><g><path d="m28.443 30.803h4.051v16.229h-4.051z" fill="#f69a8b"></path></g><g><path d="m36.511 25.624h4.051v21.407h-4.051z" fill="#5bbe88"></path></g><g><path d="m44.579 20.445h4.051v26.586h-4.051z" fill="#f69a8b"></path></g></g></svg>