<!-- icon666.com - MILLIONS vector ICONS FREE --><svg id="Capa_1" enable-background="new 0 0 512 512" viewBox="0 0 512 512" xmlns="http://www.w3.org/2000/svg"><g><path d="m255.833 70-255.833 65v322c0 30.376 24.624 55 55 55h402c30.376 0 55-24.624 55-55v-372c0-8.284-6.716-15-15-15z" fill="#5ecef4"></path><path d="m497 70h-241v442h201c30.376 0 55-24.624 55-55v-372c0-8.284-6.716-15-15-15z" fill="#4895ff"></path><path d="m512 55c0-30.376-24.624-55-55-55h-165.75c-24.222 0-46.068 14.564-55.385 36.923l-20.032 48.077h296.167z" fill="#046eff"></path><path d="m247.821 104.231 43.429-104.231h-236.25c-30.327 0-55 24.673-55 55v80h201.667c20.185 0 38.39-12.137 46.154-30.769z" fill="#696e73"></path><circle cx="67.5" cy="67.5" fill="#ff80aa" r="15"></circle><circle cx="127.5" cy="67.5" fill="#fff36c" r="15"></circle><circle cx="187.5" cy="67.5" fill="#a5e887" r="15"></circle><path d="m256 0v84.6l35.25-84.6z" fill="#4b5055"></path><path d="m383.314 232.569c-1.806-28.917-25.918-51.569-54.892-51.569h-25.851c-14.588 0-28.578 5.795-38.893 16.109l-7.678 7.678-7.678-7.678c-10.314-10.314-24.303-16.109-38.89-16.109h-25.854c-28.974 0-53.086 22.652-54.893 51.569l-3.964 63.431c0 8.284 6.716 15 15 15h232.558c8.284 0 15-6.716 15-15z" fill="#fff5f5"></path><path d="m372.279 311c8.284 0 15-6.716 15-15l-3.965-63.431c-1.806-28.917-25.918-51.569-54.892-51.569h-25.851c-14.588 0-28.578 5.795-38.893 16.109l-7.678 7.678v106.213z" fill="#e1ebf0"></path><path d="m124.721 296-3.75 60h270.058l-3.75-60z" fill="#e1ebf0"></path><path d="m256 356h135.029l-3.75-60h-131.279z" fill="#b3d8f4"></path><path d="m121 356v20c0 41.355 33.645 75 75 75 24.508 0 46.306-11.818 60-30.052 13.694 18.234 35.492 30.052 60 30.052 41.355 0 75-33.645 75-75v-20z" fill="#696e73"></path><path d="m256 420.948c13.694 18.234 35.492 30.052 60 30.052 41.355 0 75-33.645 75-75v-20h-135z" fill="#4b5055"></path><path d="m426 371h-340c-8.284 0-15-6.716-15-15s6.716-15 15-15h340c8.284 0 15 6.716 15 15s-6.716 15-15 15z" fill="#fff5f5"></path><path d="m426 341h-170v30h170c8.284 0 15-6.716 15-15s-6.716-15-15-15z" fill="#e1ebf0"></path></g></svg>