<!-- icon666.com - MILLIONS vector ICONS FREE --><svg id="Layer_1" enable-background="new 0 0 256 256" viewBox="0 0 256 256" xmlns="http://www.w3.org/2000/svg"><g><g><g><g><g><circle cx="128" cy="128" fill="#382b73" r="119.4" style="fill: rgb(245, 245, 245);"></circle></g></g></g></g><g><g><g><g><path d="m90.038 125.283c-.338-1.34-1.696-2.15-3.036-1.812-2.185.552-4.249 1.489-6.108 2.748-1.302-2.619-3.354-4.788-5.966-6.24-1.206-.671-2.729-.237-3.399.969-.671 1.207-.237 2.729.97 3.4 2.244 1.249 3.867 3.295 4.571 5.765s.404 5.064-.844 7.309c-.671 1.207-.237 2.729.97 3.4.385.214.802.316 1.213.316.878 0 1.729-.463 2.187-1.285 1.458-2.622 2.056-5.559 1.773-8.482 1.691-1.456 3.697-2.505 5.859-3.051 1.337-.339 2.148-1.698 1.81-3.037z" fill="#291b4a"></path></g></g></g><g><g><g><path d="m44.339 167.572c-.15 1.076-.227 2.158-.227 3.229 0 11.183 8.162 20.907 19.094 22.894.074.057.148.114.223.171 3.117 6.598 9.749 10.824 17.087 10.824.713 0 1.428-.041 2.137-.121 3.89 4.758 9.729 7.556 15.918 7.556 10.182 0 20.555-9.353 20.555-18.532v-26.129c0-1.381-1.119-2.5-2.5-2.5-.826 0-1.553.406-2.008 1.023-4.852 1.347-10.042.088-13.739-3.395-2.473-2.327-4.048-5.464-4.437-8.832-.158-1.372-1.395-2.352-2.771-2.197-1.371.158-2.354 1.398-2.196 2.77.523 4.538 2.646 8.764 5.976 11.899 3.669 3.455 8.429 5.288 13.292 5.288 1.126 0 2.258-.105 3.383-.304v22.376c0 6.45-8.141 13.532-15.555 13.532-5.085 0-9.86-2.498-12.773-6.683-.568-.816-1.562-1.224-2.543-1.023-.898.18-1.82.271-2.738.271-5.405 0-10.282-3.124-12.57-7.99.421-2.133 1.307-4.171 2.63-5.918.38-.502.801-.966 1.239-1.41 1.775 3.063 4.357 5.614 7.495 7.326 2.944 1.605 6.124 2.366 9.262 2.366 5.595 0 11.054-2.421 14.792-6.796.027.121.063.239.085.361.223 1.204 1.273 2.046 2.455 2.046.151 0 .304-.014.458-.042 1.357-.251 2.254-1.556 2.003-2.913-.71-3.838-2.872-7.17-6.087-9.382-3.216-2.212-7.103-3.039-10.939-2.33-1.357.251-2.254 1.556-2.003 2.913.251 1.358 1.552 2.251 2.913 2.004 2.521-.467 5.079.077 7.195 1.532.449.309.86.658 1.245 1.03-4.056 6.26-12.334 8.448-18.984 4.821-2.467-1.345-4.47-3.389-5.788-5.843.946-.447 1.936-.804 2.968-1.036 1.347-.304 2.192-1.642 1.889-2.989-.304-1.346-1.634-2.191-2.988-1.889-4.456 1.005-8.432 3.566-11.193 7.211-1.347 1.777-2.368 3.777-3.036 5.888-8.303-1.778-14.444-9.258-14.444-17.849 0-.35.03-.704.051-1.056.956.144 1.913.215 2.865.215 6.376 0 12.477-3.174 16.114-8.543 2.129 1.709 4.753 2.851 7.667 3.142.085.008.169.012.252.012 1.269 0 2.355-.962 2.484-2.251.138-1.374-.864-2.599-2.238-2.737-5.274-.527-9.136-5.248-8.608-10.521.138-1.374-.864-2.599-2.238-2.737-1.387-.137-2.599.865-2.736 2.239-.322 3.219.445 6.293 1.981 8.883-3.17 5.802-9.962 8.728-16.356 7.013-4.108-3.678-6.468-8.919-6.468-14.427 0-3.394.876-6.68 2.542-9.594.466.033.931.051 1.395.051 4.789 0 9.418-1.766 13.022-5.036 1.022-.928 1.1-2.509.172-3.531-.928-1.023-2.51-1.1-3.531-.172-2.968 2.691-6.869 3.988-10.835 3.67-1.806-3.004-2.765-6.421-2.765-9.958 0-5.016 1.915-9.776 5.393-13.402.637-.664.857-1.624.574-2.5-.625-1.932-.941-3.94-.941-5.97 0-7.801 4.69-14.8 11.794-17.82 3.365 2.887 5.225 7.14 5.013 11.615-.144 3.044-1.259 5.958-3.151 8.322-3.311.042-6.497 1.188-9.094 3.326-1.065.878-1.218 2.454-.34 3.519.878 1.067 2.454 1.218 3.52.34 1.981-1.632 4.472-2.394 7.036-2.149 2.556.247 4.862 1.474 6.494 3.456.494.6 1.21.911 1.931.911.56 0 1.123-.187 1.589-.57 1.065-.878 1.218-2.454.34-3.519-1.639-1.99-3.731-3.466-6.078-4.356 1.631-2.728 2.597-5.831 2.748-9.043.287-6.041-2.23-11.781-6.78-15.668 2.362-8.073 9.818-13.803 18.331-13.917.324 2.1.974 4.099 1.919 5.933 2.16 4.604.355 10.157-4.185 12.567-1.22.647-1.684 2.161-1.036 3.38.449.846 1.314 1.329 2.21 1.329.396 0 .797-.094 1.17-.292 4.114-2.183 6.745-6.068 7.514-10.33 1.178.87 2.461 1.623 3.848 2.226.324.141.662.208.995.208.965 0 1.885-.563 2.294-1.504.55-1.266-.03-2.739-1.297-3.289-3.155-1.371-5.63-3.748-7.116-6.679-.064-.129-.114-.261-.182-.389 0-.001-.001-.002-.002-.003-.73-1.555-1.185-3.255-1.323-5.038 2.365-5.647 7.785-9.279 13.935-9.279 7.413 0 13.84 5.517 14.949 12.833.008.053.018.105.029.158.095.438.144.875.144 1.301v16.811c-.434-.089-.87-.167-1.309-.227-5.142-.695-10.241.651-14.366 3.791-4.127 3.141-6.782 7.701-7.479 12.84-.186 1.368.773 2.627 2.142 2.813.114.015.228.023.339.023 1.231 0 2.305-.911 2.475-2.165.517-3.815 2.488-7.2 5.552-9.532 3.064-2.333 6.853-3.331 10.666-2.815.592.081 1.182.198 1.754.348.076.02.151.023.227.036v1.337c0 1.381 1.119 2.5 2.5 2.5s2.5-1.119 2.5-2.5v-23.26c0-.756-.081-1.525-.241-2.286-1.51-9.701-10.043-17.005-19.881-17.005-7.746 0-14.633 4.321-18.015 11.155-.159-.003-.316-.005-.473-.005-11.025 0-20.709 7.506-23.539 18.039-9.07 3.743-15.07 12.626-15.07 22.527 0 2.063.26 4.107.774 6.098-3.751 4.406-5.8 9.952-5.8 15.774 0 4.351 1.144 8.564 3.32 12.285-2.177 3.72-3.32 7.934-3.32 12.285-.004 6.624 2.7 12.951 7.454 17.536z" fill="#291b4a"></path></g></g></g><g><g><g><path d="m183.502 124.348c1.207-.671 1.641-2.193.97-3.4-.671-1.206-2.193-1.641-3.399-.969-2.612 1.452-4.664 3.621-5.966 6.24-1.858-1.259-3.922-2.196-6.108-2.748-1.338-.335-2.697.473-3.036 1.812-.338 1.338.473 2.698 1.812 3.036 2.162.546 4.167 1.594 5.859 3.051-.283 2.923.315 5.861 1.773 8.482.457.822 1.309 1.285 2.187 1.285.411 0 .828-.102 1.213-.316 1.207-.671 1.641-2.193.97-3.4-1.248-2.244-1.548-4.839-.844-7.309s2.325-4.516 4.569-5.764z" fill="#291b4a"></path></g></g></g><g><g><g><path d="m145.258 171.521c4.863 0 9.623-1.833 13.292-5.288 3.33-3.135 5.452-7.361 5.976-11.899.158-1.372-.825-2.612-2.196-2.77-1.38-.157-2.613.825-2.771 2.197-.389 3.368-1.964 6.504-4.437 8.832-3.698 3.482-8.888 4.744-13.739 3.395-.455-.618-1.182-1.024-2.008-1.024-1.381 0-2.5 1.119-2.5 2.5v26.129c0 9.179 10.373 18.532 20.555 18.532 6.188 0 12.028-2.798 15.918-7.556.709.081 1.424.121 2.137.121 7.338 0 13.97-4.226 17.087-10.824.074-.057.148-.114.223-.171 10.932-1.987 19.094-11.711 19.094-22.894 0-1.071-.076-2.153-.227-3.229 4.754-4.585 7.458-10.912 7.458-17.54 0-4.351-1.144-8.565-3.32-12.285 2.177-3.72 3.32-7.934 3.32-12.285 0-5.822-2.049-11.368-5.8-15.774.515-1.991.774-4.036.774-6.098 0-9.901-6-18.785-15.07-22.527-2.83-10.532-12.514-18.039-23.539-18.039-.156 0-.313.001-.473.005-3.382-6.833-10.269-11.155-18.015-11.155-9.838 0-18.371 7.305-19.881 17.005-.16.761-.241 1.529-.241 2.286v23.26c0 1.381 1.119 2.5 2.5 2.5s2.5-1.119 2.5-2.5v-1.338c.076-.013.151-.016.227-.036.572-.15 1.162-.268 1.754-.348 3.813-.519 7.603.482 10.666 2.814s5.035 5.717 5.552 9.532c.17 1.254 1.243 2.165 2.475 2.165.111 0 .225-.008.339-.023 1.368-.186 2.327-1.445 2.142-2.813-.696-5.139-3.352-9.699-7.479-12.84-4.125-3.141-9.228-4.489-14.366-3.791-.438.059-.875.137-1.309.226v-16.807c0-.426.049-.863.144-1.301.012-.052.021-.105.029-.158 1.109-7.316 7.536-12.833 14.949-12.833 6.151 0 11.571 3.632 13.936 9.279-.138 1.783-.593 3.483-1.323 5.038 0 .001-.001.002-.002.003-.068.128-.118.26-.182.389-1.486 2.931-3.961 5.308-7.116 6.679-1.267.55-1.847 2.023-1.297 3.289.409.942 1.329 1.504 2.294 1.504.333 0 .671-.066.995-.208 1.387-.603 2.671-1.356 3.848-2.226.769 4.262 3.401 8.147 7.514 10.33.373.198.774.292 1.17.292.896 0 1.761-.482 2.21-1.329.647-1.219.184-2.733-1.036-3.38-4.54-2.409-6.346-7.963-4.185-12.567.945-1.834 1.595-3.833 1.919-5.933 8.513.114 15.969 5.845 18.331 13.917-4.55 3.887-7.067 9.627-6.78 15.667.151 3.213 1.116 6.316 2.748 9.044-2.347.89-4.439 2.366-6.078 4.356-.878 1.065-.726 2.641.34 3.519.466.383 1.029.57 1.589.57.721 0 1.437-.311 1.931-.911 1.632-1.981 3.938-3.209 6.494-3.456 2.558-.244 5.055.516 7.036 2.149 1.065.877 2.642.726 3.52-.34.878-1.065.726-2.641-.34-3.519-2.597-2.139-5.781-3.285-9.094-3.327-1.893-2.364-3.008-5.278-3.151-8.322-.212-4.475 1.648-8.727 5.013-11.615 7.104 3.02 11.794 10.019 11.794 17.82 0 2.03-.316 4.038-.941 5.97-.283.875-.063 1.835.574 2.5 3.478 3.626 5.393 8.386 5.393 13.402 0 3.537-.959 6.954-2.766 9.958-3.961.319-7.868-.979-10.835-3.67-1.021-.928-2.604-.85-3.531.172-.928 1.022-.851 2.604.172 3.531 3.604 3.271 8.233 5.036 13.022 5.036.464 0 .929-.018 1.395-.051 1.666 2.914 2.542 6.2 2.542 9.594 0 5.508-2.36 10.75-6.468 14.427-6.396 1.716-13.186-1.211-16.356-7.013 1.536-2.59 2.303-5.664 1.981-8.883-.138-1.373-1.348-2.37-2.736-2.239-1.374.138-2.376 1.363-2.238 2.737.527 5.274-3.334 9.994-8.608 10.521-1.374.138-2.376 1.363-2.238 2.737.129 1.289 1.216 2.251 2.484 2.251.083 0 .167-.004.252-.012 2.914-.292 5.537-1.433 7.667-3.142 3.637 5.37 9.737 8.543 16.114 8.543.951 0 1.909-.071 2.865-.215.021.353.051.706.051 1.056 0 8.592-6.141 16.071-14.444 17.849-.668-2.111-1.689-4.111-3.036-5.888-2.762-3.646-6.737-6.207-11.193-7.211-1.355-.304-2.686.542-2.988 1.889-.304 1.347.542 2.685 1.889 2.989 1.031.232 2.022.59 2.968 1.036-1.318 2.454-3.321 4.498-5.788 5.843-6.652 3.63-14.928 1.44-18.984-4.821.384-.372.795-.721 1.245-1.03 2.116-1.455 4.675-1.999 7.195-1.532 1.358.246 2.661-.646 2.913-2.004.251-1.357-.646-2.662-2.003-2.913-3.838-.707-7.723.117-10.939 2.33-3.215 2.212-5.377 5.543-6.087 9.382-.251 1.357.646 2.662 2.003 2.913.154.028.307.042.458.042 1.182 0 2.232-.842 2.455-2.046.023-.122.058-.24.085-.36 3.737 4.375 9.196 6.795 14.792 6.795 3.138 0 6.318-.761 9.262-2.366 3.138-1.711 5.721-4.263 7.495-7.326.439.444.859.908 1.239 1.41 1.323 1.748 2.209 3.785 2.63 5.918-2.288 4.867-7.165 7.99-12.57 7.99-.918 0-1.84-.091-2.738-.271-.978-.2-1.976.206-2.543 1.023-2.913 4.185-7.688 6.683-12.773 6.683-7.414 0-15.555-7.082-15.555-13.532v-22.376c1.121.204 2.252.309 3.379.309z" fill="#291b4a"></path></g></g></g><g><g><g><path d="m98.329 129.141v5.719c0 2.289 1.548 4.288 3.766 4.862l4.478 1.154-2.352 3.984c-1.161 1.973-.842 4.481.776 6.099l4.044 4.044c1.619 1.618 4.128 1.938 6.102.775l3.981-2.35 1.154 4.479c.573 2.216 2.573 3.764 4.862 3.764h5.719c2.287 0 4.287-1.547 4.863-3.767l1.153-4.477 3.982 2.351c1.974 1.162 4.48.843 6.101-.776l4.044-4.044c1.618-1.618 1.938-4.126.775-6.101l-2.351-3.981 4.48-1.155c2.216-.574 3.763-2.573 3.763-4.861v-5.719c0-2.289-1.547-4.288-3.766-4.863l-4.478-1.154 2.352-3.984c1.161-1.972.842-4.48-.776-6.099l-4.044-4.044c-1.62-1.619-4.128-1.938-6.102-.775l-3.981 2.35-1.154-4.481c-.575-2.215-2.575-3.762-4.862-3.762h-5.719c-2.289 0-4.289 1.548-4.862 3.764-.001.001-.001.002-.001.003l-1.153 4.477-3.983-2.351c-1.973-1.161-4.481-.84-6.1.777l-4.045 4.044c-1.617 1.618-1.937 4.126-.774 6.101l2.351 3.981-4.479 1.154c-2.216.573-3.764 2.572-3.764 4.862zm5.014-.021 7.695-1.983c.761-.196 1.385-.738 1.686-1.464s.243-1.551-.156-2.227l-4.035-6.869 4.069-4.049 6.844 4.039c.676.399 1.501.457 2.228.157.726-.301 1.268-.925 1.464-1.686l1.982-7.695h5.762l1.982 7.695c.196.761.738 1.385 1.464 1.686.727.301 1.553.243 2.228-.157l6.869-4.034 4.048 4.069-4.039 6.844c-.399.676-.457 1.501-.156 2.227s.925 1.269 1.686 1.464l7.709 2.004-.014 5.74-7.695 1.983c-.761.196-1.385.738-1.686 1.464s-.243 1.551.156 2.227l4.035 6.869-4.069 4.049-6.844-4.039c-.676-.4-1.502-.458-2.228-.157s-1.268.925-1.464 1.686l-2.004 7.709-5.74-.014-1.982-7.695c-.196-.761-.738-1.385-1.464-1.686-.308-.127-.633-.19-.957-.19-.441 0-.881.117-1.271.347l-6.869 4.034-4.048-4.069 4.039-6.844c.399-.676.457-1.501.156-2.227s-.925-1.269-1.686-1.464l-7.709-2.003z" fill="#291b4a"></path></g></g></g><g><g><g><path d="m139.75 132c0-6.479-5.271-11.75-11.75-11.75s-11.75 5.271-11.75 11.75 5.271 11.75 11.75 11.75 11.75-5.271 11.75-11.75zm-18.5 0c0-3.722 3.028-6.75 6.75-6.75s6.75 3.028 6.75 6.75-3.028 6.75-6.75 6.75-6.75-3.028-6.75-6.75z" fill="#291b4a"></path></g></g></g></g><g><g><g><g><g><g><g><path d="m91.698 78.849c.324.141.662.208.995.208.965 0 1.885-.563 2.294-1.504.55-1.266-.03-2.739-1.297-3.289-5.071-2.203-8.389-7.004-8.658-12.53-.067-1.38-1.229-2.448-2.619-2.375-1.379.067-2.442 1.24-2.375 2.619.363 7.439 4.831 13.904 11.66 16.871z" fill="#65c1d6"></path></g></g></g><g><g><g><path d="m79.311 187.698c2.944 1.605 6.124 2.366 9.262 2.366 6.881 0 13.558-3.662 17.077-10.116.661-1.212.215-2.73-.997-3.392-1.214-.661-2.731-.214-3.392.998-3.807 6.978-12.582 9.557-19.556 5.754-2.98-1.625-5.3-4.26-6.529-7.42-.5-1.286-1.949-1.925-3.237-1.423-1.286.501-1.924 1.95-1.423 3.236 1.657 4.258 4.781 7.808 8.795 9.997z" fill="#65c1d6"></path></g></g></g><g><g><g><path d="m77.992 82.536c-1.22.647-1.684 2.161-1.036 3.38.449.846 1.314 1.329 2.21 1.329.396 0 .797-.094 1.17-.292 7.117-3.777 9.834-12.641 6.057-19.758-.648-1.22-2.162-1.683-3.38-1.037-1.22.647-1.684 2.161-1.036 3.38 2.484 4.683.697 10.513-3.985 12.998z" fill="#65c1d6"></path></g></g></g><g><g><g><path d="m59.89 102.5c-.938 1.012-.879 2.594.133 3.533.481.446 1.091.667 1.699.667.672 0 1.342-.269 1.834-.8 3.106-3.35 4.937-7.71 5.151-12.278.313-6.588-2.701-12.825-8.06-16.683-1.121-.807-2.683-.551-3.489.568-.808 1.121-.553 2.683.567 3.49 3.98 2.866 6.219 7.498 5.987 12.39-.159 3.39-1.517 6.627-3.822 9.113z" fill="#65c1d6"></path></g></g></g><g><g><g><path d="m52.028 165.96c7.364 0 14.369-4.229 17.624-11.192.585-1.25.045-2.739-1.206-3.323-1.253-.585-2.738-.045-3.323 1.206-3.047 6.515-10.511 9.807-17.356 7.655-1.316-.415-2.721.319-3.134 1.636-.414 1.317.318 2.721 1.636 3.134 1.905.599 3.843.884 5.759.884z" fill="#65c1d6"></path></g></g></g><g><g><g><path d="m81.614 128.064c1.834-1.821 4.12-3.116 6.612-3.745 1.339-.338 2.149-1.697 1.812-3.036-.338-1.34-1.696-2.149-3.036-1.812-3.359.848-6.44 2.593-8.911 5.045-.979.973-.985 2.556-.013 3.535.489.492 1.132.739 1.774.739.637 0 1.274-.242 1.762-.726z" fill="#65c1d6"></path></g></g></g><g><g><g><path d="m110.742 167.521c2.141 0 4.302-.355 6.398-1.083 1.304-.453 1.994-1.877 1.541-3.182-.452-1.304-1.874-1.996-3.182-1.542-5.097 1.769-10.7.573-14.622-3.122-2.473-2.327-4.048-5.464-4.437-8.832-.158-1.372-1.395-2.357-2.771-2.197-1.371.158-2.354 1.398-2.196 2.77.523 4.538 2.646 8.764 5.976 11.899 3.67 3.456 8.43 5.289 13.293 5.289z" fill="#65c1d6"></path></g></g></g><g><g><g><path d="m65.339 190.471c1.218 0 2.284-.891 2.47-2.131.354-2.368 1.312-4.635 2.768-6.558 2.051-2.707 5.002-4.608 8.309-5.353 1.347-.304 2.192-1.642 1.889-2.989-.304-1.346-1.634-2.191-2.988-1.889-4.456 1.005-8.432 3.566-11.193 7.211-1.962 2.588-3.251 5.645-3.729 8.838-.204 1.365.737 2.638 2.103 2.842.124.019.248.029.371.029z" fill="#65c1d6"></path></g></g></g><g><g><g><path d="m45.818 136.49c4.789 0 9.418-1.766 13.022-5.036 1.022-.928 1.1-2.509.172-3.531-.928-1.023-2.51-1.1-3.531-.172-3.208 2.909-7.504 4.214-11.796 3.583-1.374-.205-2.637.743-2.839 2.108-.201 1.366.743 2.636 2.108 2.838.958.14 1.914.21 2.864.21z" fill="#65c1d6"></path></g></g></g><g><g><g><path d="m93.452 103.217c1.231 0 2.305-.911 2.475-2.165.517-3.815 2.488-7.2 5.552-9.532 3.064-2.333 6.853-3.331 10.666-2.815.592.081 1.182.198 1.754.348 1.333.352 2.703-.446 3.054-1.783.351-1.335-.447-2.702-1.782-3.053-.769-.202-1.561-.359-2.354-.467-5.142-.695-10.241.651-14.366 3.791-4.127 3.141-6.782 7.701-7.479 12.84-.186 1.368.773 2.627 2.142 2.813.114.015.227.023.338.023z" fill="#65c1d6"></path></g></g></g><g><g><g><path d="m54.647 108.894c1.981-1.632 4.472-2.393 7.036-2.149 2.556.247 4.862 1.474 6.494 3.456.494.6 1.21.911 1.931.911.56 0 1.123-.187 1.589-.57 1.065-.878 1.218-2.454.34-3.519-2.481-3.013-5.988-4.878-9.873-5.254-3.876-.37-7.683.785-10.696 3.267-1.065.878-1.218 2.454-.34 3.519s2.454 1.216 3.519.339z" fill="#65c1d6"></path></g></g></g><g><g><g><path d="m77.195 136.821c.385.214.802.316 1.213.316.878 0 1.729-.463 2.187-1.285 1.897-3.411 2.354-7.357 1.283-11.11s-3.538-6.866-6.95-8.763c-1.206-.672-2.729-.237-3.399.969s-.237 2.729.97 3.4c2.244 1.249 3.867 3.295 4.571 5.765s.404 5.064-.844 7.309c-.671 1.205-.238 2.728.969 3.399z" fill="#65c1d6"></path></g></g></g><g><g><g><path d="m65.46 142.325c-1.387-.136-2.599.865-2.736 2.239-.803 8.018 5.067 15.193 13.085 15.995.085.008.169.012.252.012 1.269 0 2.355-.962 2.484-2.251.138-1.374-.864-2.599-2.238-2.737-5.274-.527-9.136-5.248-8.608-10.521.137-1.374-.865-2.599-2.239-2.737z" fill="#65c1d6"></path></g></g></g><g><g><g><path d="m92.249 175.925c2.521-.467 5.079.077 7.195 1.532 2.115 1.455 3.537 3.647 4.005 6.172.223 1.204 1.273 2.046 2.455 2.046.151 0 .304-.014.458-.042 1.357-.251 2.254-1.556 2.003-2.913-.71-3.838-2.872-7.17-6.087-9.382-3.216-2.212-7.103-3.039-10.939-2.33-1.357.251-2.254 1.556-2.003 2.913.251 1.359 1.552 2.252 2.913 2.004z" fill="#65c1d6"></path></g></g></g><g><g><g><path d="m44.339 163.572c-.15 1.076-.227 2.158-.227 3.229 0 11.183 8.162 20.907 19.094 22.894.074.057.148.114.223.171 3.117 6.598 9.749 10.824 17.087 10.824.713 0 1.428-.041 2.137-.121 3.89 4.758 9.729 7.556 15.918 7.556 10.182 0 20.555-9.353 20.555-18.532v-26.129c0-1.381-1.119-2.5-2.5-2.5s-2.5 1.119-2.5 2.5v26.129c0 6.45-8.141 13.532-15.555 13.532-5.085 0-9.86-2.498-12.773-6.683-.568-.816-1.562-1.223-2.543-1.023-.898.18-1.82.271-2.738.271-5.566 0-10.581-3.307-12.775-8.425-.177-.411-.46-.768-.82-1.032-.387-.284-.766-.577-1.143-.871-.339-.264-.739-.436-1.163-.5-8.838-1.341-15.502-9.105-15.502-18.061 0-1.146.111-2.311.332-3.461.08-.418.053-.849-.081-1.253l-.119-.353c-.139-.433-.393-.82-.735-1.119-4.212-3.684-6.628-9-6.628-14.583 0-3.902 1.156-7.664 3.343-10.879.577-.848.577-1.963 0-2.812-2.187-3.215-3.343-6.977-3.343-10.879 0-5.016 1.915-9.776 5.393-13.402.637-.664.857-1.624.574-2.5-.625-1.932-.941-3.94-.941-5.97 0-8.241 5.23-15.595 13.016-18.299.831-.289 1.449-.993 1.628-1.854 1.854-8.931 9.83-15.413 18.966-15.413.583 0 1.197.03 1.825.089 1.131.107 2.16-.543 2.564-1.584 2.276-5.865 7.81-9.654 14.098-9.654 7.413 0 13.84 5.517 14.949 12.833.008.053.018.105.029.158.095.438.144.875.144 1.301v23.26c0 1.381 1.119 2.5 2.5 2.5s2.5-1.119 2.5-2.5v-23.26c0-.756-.081-1.525-.241-2.286-1.51-9.701-10.043-17.005-19.881-17.005-7.746 0-14.633 4.321-18.015 11.155-.159-.003-.316-.005-.473-.005-11.025 0-20.709 7.506-23.539 18.039-9.07 3.743-15.07 12.626-15.07 22.527 0 2.063.26 4.107.774 6.098-3.751 4.406-5.8 9.952-5.8 15.774 0 4.351 1.144 8.564 3.32 12.285-2.177 3.72-3.32 7.934-3.32 12.285-.002 6.626 2.702 12.953 7.456 17.538z" fill="#65c1d6"></path></g></g></g></g></g><g><g><g><g><g><path d="m163.307 79.056c.333 0 .671-.066.995-.208 6.829-2.967 11.297-9.432 11.66-16.873.067-1.379-.996-2.551-2.375-2.619-1.398-.069-2.551.996-2.619 2.375-.27 5.525-3.587 10.327-8.658 12.53-1.267.55-1.847 2.023-1.297 3.289.409.944 1.329 1.506 2.294 1.506z" fill="#65c1d6"></path></g></g></g><g><g><g><path d="m167.428 190.064c3.138 0 6.318-.761 9.262-2.366 4.014-2.189 7.138-5.739 8.795-9.996.501-1.287-.137-2.735-1.423-3.236-1.29-.501-2.736.136-3.237 1.423-1.229 3.16-3.549 5.794-6.529 7.42-6.976 3.805-15.749 1.225-19.556-5.754-.66-1.213-2.181-1.658-3.392-.998-1.212.661-1.658 2.18-.997 3.392 3.519 6.454 10.195 10.115 17.077 10.115z" fill="#65c1d6"></path></g></g></g><g><g><g><path d="m172.987 66.158c-1.219-.648-2.734-.184-3.38 1.037-3.777 7.117-1.061 15.98 6.057 19.758.373.198.774.292 1.17.292.896 0 1.761-.482 2.21-1.329.647-1.219.184-2.733-1.036-3.38-4.682-2.484-6.469-8.315-3.984-12.997.647-1.22.183-2.733-1.037-3.381z" fill="#65c1d6"></path></g></g></g><g><g><g><path d="m198.274 80.996c1.12-.807 1.375-2.369.567-3.49-.807-1.12-2.368-1.375-3.489-.568-5.358 3.858-8.372 10.095-8.06 16.683.215 4.568 2.045 8.929 5.151 12.279.493.531 1.162.8 1.834.8.608 0 1.218-.221 1.699-.667 1.012-.939 1.071-2.521.133-3.533-2.306-2.486-3.663-5.722-3.823-9.114-.23-4.892 2.008-9.524 5.988-12.39z" fill="#65c1d6"></path></g></g></g><g><g><g><path d="m203.972 165.96c1.915 0 3.855-.286 5.76-.884 1.317-.414 2.05-1.817 1.636-3.134-.413-1.317-1.818-2.051-3.134-1.636-6.85 2.151-14.31-1.14-17.356-7.655-.584-1.25-2.073-1.79-3.323-1.206-1.251.584-1.791 2.073-1.206 3.323 3.255 6.964 10.257 11.192 17.623 11.192z" fill="#65c1d6"></path></g></g></g><g><g><g><path d="m174.386 128.064c.488.484 1.125.726 1.762.726.643 0 1.285-.247 1.774-.739.973-.979.967-2.563-.013-3.535-2.471-2.452-5.552-4.197-8.911-5.045-1.338-.337-2.697.474-3.036 1.812-.338 1.338.473 2.698 1.812 3.036 2.492.629 4.778 1.924 6.612 3.745z" fill="#65c1d6"></path></g></g></g><g><g><g><path d="m145.258 167.521c4.863 0 9.623-1.833 13.292-5.288 3.33-3.135 5.452-7.361 5.976-11.899.158-1.372-.825-2.612-2.196-2.77-1.38-.162-2.613.825-2.771 2.197-.389 3.368-1.964 6.504-4.437 8.832-3.924 3.695-9.526 4.892-14.622 3.122-1.307-.455-2.729.237-3.182 1.542-.453 1.304.237 2.729 1.541 3.182 2.098.727 4.258 1.082 6.399 1.082z" fill="#65c1d6"></path></g></g></g><g><g><g><path d="m185.424 181.782c1.456 1.923 2.414 4.19 2.768 6.558.186 1.24 1.252 2.131 2.47 2.131.123 0 .247-.009.373-.028 1.365-.204 2.307-1.477 2.103-2.842-.478-3.194-1.767-6.25-3.729-8.838-2.762-3.646-6.737-6.207-11.193-7.211-1.355-.305-2.686.542-2.988 1.889-.304 1.347.542 2.685 1.889 2.989 3.305.744 6.256 2.645 8.307 5.352z" fill="#65c1d6"></path></g></g></g><g><g><g><path d="m213.045 136.279c1.365-.202 2.31-1.472 2.108-2.838s-1.464-2.313-2.839-2.108c-4.285.635-8.589-.673-11.796-3.583-1.021-.928-2.604-.85-3.531.172-.928 1.022-.851 2.604.172 3.531 3.604 3.271 8.233 5.036 13.022 5.036.951.001 1.908-.069 2.864-.21z" fill="#65c1d6"></path></g></g></g><g><g><g><path d="m142.102 89.053c.572-.15 1.162-.268 1.754-.348 3.813-.519 7.603.482 10.666 2.814s5.035 5.717 5.552 9.532c.17 1.254 1.243 2.165 2.475 2.165.111 0 .225-.008.339-.023 1.368-.186 2.327-1.445 2.142-2.813-.696-5.139-3.352-9.699-7.479-12.84-4.125-3.141-9.228-4.487-14.366-3.791-.793.107-1.585.265-2.354.466-1.335.351-2.133 1.718-1.782 3.053.349 1.338 1.722 2.133 3.053 1.785z" fill="#65c1d6"></path></g></g></g><g><g><g><path d="m187.822 110.2c1.632-1.981 3.938-3.209 6.494-3.456 2.558-.245 5.055.516 7.036 2.149 1.065.876 2.642.725 3.52-.34s.726-2.641-.34-3.519c-3.014-2.482-6.817-3.637-10.696-3.267-3.885.375-7.392 2.241-9.873 5.254-.878 1.065-.726 2.641.34 3.519.466.383 1.029.57 1.589.57.72.001 1.436-.31 1.93-.91z" fill="#65c1d6"></path></g></g></g><g><g><g><path d="m183.502 120.348c1.207-.671 1.641-2.193.97-3.4s-2.193-1.641-3.399-.969c-3.412 1.897-5.88 5.009-6.95 8.763s-.614 7.699 1.283 11.11c.457.822 1.309 1.285 2.187 1.285.411 0 .828-.102 1.213-.316 1.207-.671 1.641-2.193.97-3.4-1.248-2.244-1.548-4.839-.844-7.309s2.326-4.516 4.57-5.764z" fill="#65c1d6"></path></g></g></g><g><g><g><path d="m179.693 155.583c-1.374.138-2.376 1.363-2.238 2.737.129 1.289 1.216 2.251 2.484 2.251.083 0 .167-.004.252-.012 8.018-.802 13.888-7.978 13.085-15.995-.138-1.373-1.348-2.369-2.736-2.239-1.374.138-2.376 1.363-2.238 2.737.527 5.274-3.334 9.994-8.609 10.521z" fill="#65c1d6"></path></g></g></g><g><g><g><path d="m150.096 185.675c1.182 0 2.232-.842 2.455-2.046.468-2.525 1.89-4.717 4.005-6.172 2.116-1.455 4.675-1.999 7.195-1.532 1.358.247 2.661-.646 2.913-2.004.251-1.357-.646-2.662-2.003-2.913-3.838-.708-7.723.117-10.939 2.33-3.215 2.212-5.377 5.543-6.087 9.382-.251 1.357.646 2.662 2.003 2.913.154.028.306.042.458.042z" fill="#65c1d6"></path></g></g></g><g><g><g><path d="m139.375 160.964c-1.381 0-2.5 1.119-2.5 2.5v26.129c0 9.179 10.373 18.532 20.555 18.532 6.188 0 12.028-2.798 15.918-7.556.709.081 1.424.121 2.137.121 7.338 0 13.97-4.226 17.087-10.824.074-.057.148-.114.223-.171 10.932-1.987 19.094-11.711 19.094-22.894 0-1.071-.076-2.153-.227-3.229 4.754-4.585 7.458-10.912 7.458-17.54 0-4.351-1.144-8.565-3.32-12.285 2.177-3.72 3.32-7.934 3.32-12.285 0-5.822-2.049-11.368-5.8-15.774.515-1.991.774-4.036.774-6.098 0-9.901-6-18.785-15.07-22.527-2.83-10.532-12.514-18.039-23.539-18.039-.156 0-.313.001-.473.005-3.382-6.833-10.269-11.155-18.015-11.155-9.838 0-18.371 7.305-19.881 17.005-.16.761-.241 1.529-.241 2.286v23.26c0 1.381 1.119 2.5 2.5 2.5s2.5-1.119 2.5-2.5v-23.26c0-.426.049-.863.144-1.301.012-.052.021-.105.029-.158 1.109-7.316 7.536-12.833 14.949-12.833 6.288 0 11.821 3.79 14.098 9.654.404 1.042 1.436 1.693 2.564 1.584.628-.059 1.242-.089 1.825-.089 9.136 0 17.112 6.482 18.966 15.413.179.861.797 1.565 1.628 1.854 7.785 2.704 13.016 10.058 13.016 18.299 0 2.03-.316 4.038-.941 5.97-.283.875-.063 1.835.574 2.5 3.478 3.626 5.393 8.386 5.393 13.402 0 3.902-1.156 7.664-3.343 10.879-.577.848-.577 1.963 0 2.812 2.187 3.215 3.343 6.977 3.343 10.879 0 5.583-2.416 10.898-6.628 14.583-.343.299-.597.686-.735 1.119l-.119.353c-.134.404-.161.835-.081 1.253.221 1.15.332 2.315.332 3.461 0 8.955-6.664 16.72-15.502 18.061-.424.064-.824.237-1.163.5-.377.294-.756.587-1.143.871-.36.264-.644.621-.82 1.032-2.194 5.118-7.209 8.425-12.775 8.425-.918 0-1.84-.091-2.738-.271-.978-.199-1.976.206-2.543 1.023-2.913 4.185-7.688 6.683-12.773 6.683-7.414 0-15.555-7.082-15.555-13.532v-26.129c-.002-1.379-1.121-2.498-2.502-2.498z" fill="#65c1d6"></path></g></g></g></g></g></g><g><g><g><g><path d="m90.038 121.283c-.286-1.135-1.304-1.888-2.422-1.888-.203 0-.409.025-.614.076-2.185.552-4.249 1.489-6.108 2.748-1.302-2.619-3.354-4.788-5.966-6.24-.385-.214-.802-.316-1.213-.316-.878 0-1.73.464-2.187 1.285-.671 1.207-.237 2.729.97 3.4 2.244 1.249 3.867 3.295 4.571 5.765s.404 5.064-.844 7.309c-.671 1.207-.237 2.729.97 3.4.385.214.802.316 1.213.316.878 0 1.729-.463 2.187-1.285 1.458-2.622 2.056-5.559 1.773-8.482 1.691-1.456 3.697-2.505 5.859-3.051 1.338-.339 2.149-1.698 1.811-3.037zm-2.179 1.582c-2.369.598-4.606 1.763-6.47 3.368-.369.318-.561.796-.514 1.281.256 2.646-.294 5.277-1.591 7.609-.176.317-.512.514-.876.514-.17 0-.332-.042-.484-.127-.233-.13-.402-.343-.475-.599s-.042-.527.088-.76c1.443-2.594 1.789-5.595.975-8.449s-2.691-5.221-5.285-6.664c-.233-.13-.402-.343-.475-.599s-.042-.527.088-.76c.176-.317.512-.514.875-.514.17 0 .332.043.484.127 2.323 1.292 4.174 3.227 5.352 5.597.193.387.543.673.962.783.126.033.254.049.381.049.297 0 .591-.088.841-.258 1.738-1.177 3.633-2.03 5.633-2.535.082-.021.166-.031.248-.031.458 0 .856.311.968.756.065.259.026.528-.111.757-.137.227-.355.389-.614.455z" fill="#149cb2"></path></g></g></g><g><g><g><path d="m44.339 163.572c-.15 1.076-.227 2.158-.227 3.229 0 11.183 8.162 20.907 19.094 22.894.074.057.148.114.223.171 3.117 6.598 9.749 10.824 17.087 10.824.713 0 1.428-.041 2.137-.121 3.89 4.758 9.729 7.556 15.918 7.556 10.182 0 20.555-9.353 20.555-18.532v-26.129c0-1.381-1.119-2.5-2.5-2.5-.826 0-1.553.406-2.008 1.023-1.278.355-2.581.529-3.873.529-3.611 0-7.143-1.359-9.866-3.924-2.473-2.327-4.048-5.464-4.437-8.832-.147-1.274-1.223-2.214-2.477-2.214-.097 0-.195.006-.293.017-1.371.158-2.354 1.398-2.196 2.77.523 4.538 2.646 8.764 5.976 11.899 3.669 3.455 8.429 5.288 13.292 5.288 1.126 0 2.258-.105 3.383-.304v22.376c0 6.45-8.141 13.532-15.555 13.532-5.085 0-9.86-2.498-12.773-6.683-.472-.678-1.237-1.073-2.045-1.073-.165 0-.331.016-.498.05-.898.18-1.82.271-2.738.271-5.405 0-10.282-3.124-12.57-7.99.421-2.133 1.307-4.171 2.63-5.918.38-.502.801-.966 1.239-1.41 1.775 3.063 4.357 5.614 7.495 7.326 2.944 1.605 6.124 2.366 9.262 2.366 5.595 0 11.054-2.421 14.792-6.796.027.121.063.239.085.361.223 1.204 1.273 2.046 2.455 2.046.151 0 .304-.014.458-.042 1.357-.251 2.254-1.556 2.003-2.913-.71-3.838-2.872-7.17-6.087-9.382-2.465-1.695-5.324-2.577-8.252-2.577-.892 0-1.791.082-2.687.248-1.357.251-2.254 1.556-2.003 2.913.223 1.206 1.273 2.045 2.458 2.045.15 0 .302-.013.455-.041.589-.109 1.181-.163 1.768-.163 1.925 0 3.806.58 5.427 1.695.449.309.86.658 1.245 1.03-2.726 4.207-7.358 6.575-12.121 6.575-2.325 0-4.681-.564-6.862-1.753-2.467-1.345-4.47-3.389-5.788-5.843.946-.447 1.936-.804 2.968-1.036 1.347-.304 2.192-1.642 1.889-2.989-.262-1.161-1.289-1.95-2.436-1.95-.182 0-.367.02-.553.061-4.456 1.005-8.432 3.566-11.193 7.211-1.347 1.777-2.368 3.777-3.036 5.888-8.303-1.778-14.444-9.258-14.444-17.849 0-.35.03-.704.051-1.056.956.144 1.913.215 2.865.215 6.376 0 12.477-3.174 16.114-8.543 2.129 1.709 4.753 2.851 7.667 3.142.085.008.169.012.252.012 1.269 0 2.355-.962 2.484-2.251.138-1.374-.864-2.599-2.238-2.737-5.274-.527-9.136-5.248-8.608-10.521.138-1.374-.864-2.599-2.238-2.737-.085-.008-.169-.012-.252-.012-1.279 0-2.355.962-2.484 2.251-.322 3.219.445 6.293 1.981 8.883-2.562 4.688-7.491 7.5-12.661 7.5-1.227 0-2.468-.158-3.694-.487-4.108-3.678-6.468-8.919-6.468-14.427 0-3.394.876-6.68 2.542-9.594.466.033.931.051 1.395.051 4.789 0 9.418-1.766 13.022-5.036 1.022-.928 1.1-2.509.172-3.531-.493-.544-1.172-.82-1.853-.82-.599 0-1.2.214-1.679.648-2.674 2.425-6.104 3.718-9.657 3.718-.392 0-.785-.016-1.179-.047-1.806-3.004-2.765-6.421-2.765-9.958 0-5.016 1.915-9.776 5.393-13.402.637-.664.857-1.624.574-2.5-.625-1.932-.941-3.94-.941-5.97 0-7.801 4.69-14.8 11.794-17.82 3.365 2.887 5.225 7.14 5.013 11.615-.144 3.044-1.259 5.958-3.151 8.322-3.311.042-6.497 1.188-9.094 3.326-1.065.878-1.218 2.454-.34 3.519.494.6 1.21.911 1.931.911.56 0 1.123-.187 1.588-.57 1.739-1.432 3.869-2.194 6.098-2.194.311 0 .624.015.938.045 2.556.247 4.862 1.474 6.494 3.456.494.6 1.21.911 1.931.911.56 0 1.123-.187 1.589-.57 1.065-.878 1.218-2.454.34-3.519-1.639-1.99-3.731-3.466-6.078-4.356 1.631-2.728 2.597-5.831 2.748-9.043.287-6.041-2.23-11.781-6.78-15.668 2.362-8.073 9.818-13.803 18.331-13.917.324 2.1.974 4.099 1.919 5.933 2.16 4.604.355 10.157-4.185 12.567-1.22.647-1.684 2.161-1.036 3.38.449.846 1.314 1.329 2.21 1.329.396 0 .797-.094 1.17-.292 4.114-2.183 6.745-6.068 7.514-10.33 1.178.87 2.461 1.623 3.848 2.226.324.141.662.208.995.208.965 0 1.885-.563 2.294-1.504.55-1.266-.03-2.739-1.297-3.289-3.155-1.371-5.63-3.748-7.116-6.679-.064-.129-.114-.261-.182-.389 0-.001-.001-.002-.002-.003-.73-1.555-1.185-3.255-1.323-5.038 2.365-5.647 7.785-9.279 13.935-9.279 7.413 0 13.84 5.517 14.949 12.833.008.053.018.105.029.158.095.438.144.875.144 1.301v16.811c-.434-.089-.87-.167-1.309-.227-.884-.12-1.768-.179-2.645-.179-4.222 0-8.305 1.37-11.721 3.97-4.127 3.141-6.782 7.701-7.479 12.84-.186 1.368.773 2.627 2.142 2.813.114.015.228.023.339.023 1.231 0 2.305-.911 2.475-2.165.517-3.815 2.488-7.2 5.552-9.532 2.537-1.931 5.57-2.948 8.702-2.948.652 0 1.307.044 1.964.133.592.081 1.182.198 1.754.348.076.02.151.023.227.036v1.338c0 1.381 1.119 2.5 2.5 2.5s2.5-1.119 2.5-2.5v-23.26c0-.756-.081-1.525-.241-2.286-1.51-9.701-10.043-17.005-19.881-17.005-7.746 0-14.633 4.321-18.015 11.155-.159-.003-.316-.005-.473-.005-11.025 0-20.709 7.506-23.539 18.039-9.07 3.743-15.07 12.626-15.07 22.527 0 2.063.26 4.107.774 6.098-3.751 4.406-5.8 9.952-5.8 15.774 0 4.351 1.144 8.564 3.32 12.285-2.177 3.72-3.32 7.934-3.32 12.285-.003 6.619 2.701 12.946 7.455 17.531zm-2.843-30.582c-2.038-3.483-3.115-7.469-3.115-11.527 0-5.423 1.933-10.68 5.442-14.802.317-.372.432-.875.31-1.348-.482-1.866-.727-3.791-.727-5.723 0-9.298 5.551-17.596 14.142-21.141.431-.178.755-.547.876-.997 2.678-9.967 11.762-16.928 22.09-16.928.146 0 .292.001.44.005h.032c.569 0 1.091-.323 1.344-.835 3.15-6.366 9.538-10.32 16.67-10.32 9.093 0 17.003 6.765 18.399 15.736.004.026.009.052.014.078.139.659.209 1.324.209 1.977v23.26c0 .552-.449 1-1 1s-1-.448-1-1v-1.338c0-.733-.529-1.358-1.252-1.479-.042-.007-.085-.013-.143-.02-.616-.16-1.249-.284-1.884-.371-.718-.097-1.446-.146-2.165-.146-3.491 0-6.814 1.125-9.611 3.254-3.382 2.575-5.559 6.313-6.13 10.524-.067.494-.492.866-.988.866-.047 0-.094-.004-.137-.009-.265-.036-.5-.173-.662-.385-.162-.213-.231-.475-.195-.74.643-4.742 3.093-8.95 6.901-11.848 3.148-2.397 6.887-3.664 10.812-3.663.811 0 1.634.056 2.443.165.376.051.771.12 1.209.209.1.021.201.031.302.031.342 0 .678-.117.948-.337.349-.285.552-.712.552-1.163v-16.809c0-.53-.06-1.074-.177-1.618-.001-.004-.011-.061-.012-.065-1.22-8.043-8.284-14.108-16.432-14.108-6.712 0-12.725 4.003-15.319 10.199-.092.219-.13.458-.112.695.151 1.945.642 3.816 1.471 5.58.01.021.021.041.032.061.019.037.035.076.052.114.033.075.067.149.11.237 1.661 3.278 4.452 5.897 7.856 7.377.506.22.738.81.519 1.316-.159.366-.519.602-.918.602-.137 0-.27-.028-.397-.083-1.241-.539-2.437-1.231-3.555-2.057-.262-.194-.575-.293-.891-.293-.187 0-.375.035-.553.106-.482.191-.83.617-.923 1.128-.722 4.002-3.18 7.381-6.741 9.271-.147.078-.304.117-.467.117-.372 0-.711-.204-.885-.532-.125-.236-.151-.506-.073-.761s.251-.465.487-.59c5.234-2.777 7.36-9.159 4.84-14.529-.008-.017-.016-.034-.025-.05-.876-1.699-1.472-3.541-1.77-5.474-.113-.732-.743-1.271-1.482-1.271-.007 0-.014 0-.02 0-9.081.122-17.203 6.288-19.751 14.996-.166.567.016 1.178.465 1.562 4.24 3.622 6.52 8.891 6.256 14.457-.137 2.912-1.014 5.798-2.537 8.344-.228.381-.275.843-.129 1.262s.47.752.885.91c2.125.806 4.01 2.157 5.452 3.908.351.426.289 1.057-.135 1.407-.23.189-.472.229-.636.229-.301 0-.582-.133-.773-.364-1.887-2.291-4.553-3.71-7.51-3.995-.359-.034-.722-.052-1.08-.052-2.599 0-5.038.877-7.052 2.536-.229.189-.472.228-.635.228-.301 0-.583-.133-.773-.365-.351-.426-.289-1.057.136-1.407 2.325-1.915 5.146-2.947 8.159-2.984.449-.006.872-.212 1.152-.563 2.087-2.606 3.322-5.869 3.479-9.189.233-4.932-1.784-9.606-5.534-12.824-.277-.238-.625-.362-.977-.362-.198 0-.398.039-.587.12-7.719 3.282-12.707 10.818-12.707 19.2 0 2.187.341 4.351 1.014 6.432.113.351.025.734-.23 1-3.747 3.907-5.81 9.035-5.81 14.44 0 3.778 1.03 7.489 2.98 10.731.249.415.683.684 1.165.722.431.035.868.052 1.299.052 3.957 0 7.744-1.458 10.665-4.107.184-.167.422-.259.67-.259.286 0 .55.116.742.328.179.198.271.453.258.72s-.129.513-.327.692c-3.303 2.997-7.57 4.647-12.015 4.647-.415 0-.849-.016-1.288-.047-.036-.002-.071-.004-.107-.004-.535 0-1.034.286-1.302.756-1.793 3.135-2.74 6.71-2.74 10.338 0 5.915 2.54 11.581 6.968 15.545.175.157.385.27.612.331 1.332.357 2.705.539 4.083.539 5.831 0 11.187-3.173 13.978-8.281.254-.465.244-1.029-.026-1.485-1.442-2.431-2.057-5.186-1.779-7.968.051-.514.478-.901.992-.901.035 0 .07.002.103.005.266.027.505.155.674.362s.247.467.221.733c-.295 2.949.579 5.84 2.46 8.14s4.542 3.729 7.491 4.023c.549.055.95.546.895 1.095-.051.513-.478.9-.992.9-.035 0-.07-.002-.103-.005-2.515-.251-4.893-1.226-6.877-2.819-.268-.215-.6-.33-.939-.33-.074 0-.149.006-.224.017-.414.062-.784.295-1.018.642-3.344 4.937-8.903 7.885-14.872 7.885-.878 0-1.767-.067-2.642-.198-.074-.011-.149-.017-.223-.017-.342 0-.676.117-.945.335-.327.265-.528.656-.553 1.077l-.013.242c-.02.301-.038.602-.038.901 0 9.253 6.573 17.377 15.63 19.316.105.022.211.033.315.033.641 0 1.229-.414 1.429-1.048.627-1.981 1.569-3.81 2.801-5.435 2.548-3.364 6.216-5.727 10.324-6.653.075-.017.151-.025.226-.025.469 0 .869.321.973.78.121.538-.218 1.074-.755 1.196-1.089.246-2.192.63-3.279 1.144-.372.176-.655.496-.784.887s-.091.817.103 1.179c1.473 2.743 3.683 4.973 6.391 6.45 2.323 1.267 4.945 1.937 7.581 1.937 5.434 0 10.436-2.714 13.38-7.259.39-.602.299-1.395-.216-1.894-.479-.463-.949-.852-1.438-1.188-1.864-1.281-4.034-1.959-6.277-1.959-.68 0-1.367.063-2.037.188-.062.011-.125.017-.186.017-.482 0-.895-.344-.983-.818-.1-.542.259-1.065.801-1.165.799-.148 1.611-.223 2.415-.223 2.643 0 5.202.8 7.402 2.313 2.885 1.985 4.825 4.975 5.462 8.419.1.542-.259 1.065-.799 1.165-.064.012-.125.017-.187.017-.48 0-.892-.344-.98-.819-.02-.107-.045-.211-.072-.315l-.025-.101c-.124-.554-.551-.991-1.102-1.128-.12-.03-.241-.044-.361-.044-.433 0-.852.188-1.141.526-3.404 3.985-8.38 6.27-13.651 6.27-2.97 0-5.924-.755-8.544-2.183-2.868-1.564-5.259-3.902-6.915-6.761-.234-.405-.644-.677-1.108-.736-.063-.008-.127-.012-.19-.012-.398 0-.784.159-1.067.446-.541.548-.988 1.057-1.368 1.558-1.431 1.889-2.436 4.149-2.906 6.534-.062.314-.022.639.114.928 2.528 5.377 7.994 8.852 13.927 8.852 1.016 0 2.037-.101 3.037-.301.066-.013.133-.02.199-.02.322 0 .627.161.814.43 3.193 4.587 8.429 7.326 14.005 7.326 8.288 0 17.055-7.727 17.055-15.032v-22.376c0-.444-.196-.864-.536-1.149-.272-.228-.614-.351-.964-.351-.087 0-.174.008-.261.023-1.054.186-2.104.281-3.122.281-4.566 0-8.922-1.733-12.264-4.88-3.073-2.893-5.031-6.792-5.514-10.979-.063-.548.331-1.045.88-1.108.04-.005.08-.007.12-.007.505 0 .929.381.987.886.429 3.72 2.169 7.183 4.898 9.751 2.966 2.793 6.835 4.332 10.894 4.332 1.441 0 2.879-.197 4.274-.584.323-.09.607-.285.806-.555.194-.263.485-.413.801-.413.551 0 1 .448 1 1v26.129c0 8.277-9.794 17.032-19.055 17.032-5.739 0-11.117-2.553-14.757-7.005-.287-.351-.714-.551-1.161-.551-.056 0-.113.003-.17.01-.651.074-1.313.112-1.967.112-6.696 0-12.871-3.911-15.731-9.965-.102-.217-.255-.406-.446-.552l-.218-.167c-.19-.146-.411-.245-.647-.287-10.183-1.851-17.862-11.059-17.862-21.418 0-.998.071-2.014.212-3.021.066-.475-.099-.954-.444-1.287-4.448-4.291-6.999-10.29-6.999-16.46 0-4.059 1.077-8.045 3.115-11.528.276-.469.276-1.048.002-1.516z" fill="#149cb2"></path></g></g></g><g><g><g><path d="m183.502 120.348c1.207-.671 1.641-2.193.97-3.4-.457-.822-1.309-1.285-2.187-1.285-.411 0-.828.102-1.213.316-2.612 1.452-4.664 3.621-5.966 6.24-1.858-1.259-3.922-2.196-6.108-2.748-.205-.052-.41-.076-.612-.076-1.118 0-2.137.755-2.424 1.888-.338 1.338.473 2.698 1.812 3.036 2.162.546 4.167 1.594 5.859 3.051-.283 2.923.315 5.861 1.773 8.482.457.822 1.309 1.285 2.187 1.285.411 0 .828-.102 1.213-.316 1.207-.671 1.641-2.193.97-3.4-1.248-2.244-1.548-4.839-.844-7.309s2.326-4.516 4.57-5.764zm-5.038 13.802c.13.233.161.504.088.76s-.242.47-.477.6c-.151.084-.313.126-.483.126-.364 0-.699-.197-.876-.514-1.297-2.332-1.847-4.963-1.591-7.608.047-.485-.145-.963-.514-1.281-1.864-1.605-4.102-2.77-6.47-3.368-.259-.065-.477-.228-.613-.457-.137-.229-.176-.498-.111-.756.113-.445.511-.756.97-.756.082 0 .165.01.245.031 2.001.505 3.896 1.358 5.634 2.535.251.17.544.258.841.258.128 0 .256-.016.381-.049.419-.11.769-.396.962-.783 1.178-2.37 3.029-4.305 5.353-5.598.151-.084.313-.126.483-.126.364 0 .699.197.876.514.13.233.161.504.088.76s-.242.47-.476.6c-2.594 1.443-4.471 3.81-5.285 6.664-.815 2.853-.468 5.854.975 8.448z" fill="#149cb2"></path></g></g></g><g><g><g><path d="m145.258 167.521c4.863 0 9.623-1.833 13.292-5.288 3.33-3.135 5.452-7.361 5.976-11.899.158-1.372-.825-2.612-2.196-2.77-.099-.012-.198-.017-.296-.017-1.256 0-2.329.941-2.475 2.214-.389 3.368-1.964 6.504-4.437 8.832-2.724 2.565-6.256 3.925-9.866 3.925-1.292 0-2.594-.174-3.872-.53-.455-.618-1.182-1.024-2.008-1.024-1.381 0-2.5 1.119-2.5 2.5v26.129c0 9.179 10.373 18.532 20.555 18.532 6.188 0 12.028-2.798 15.918-7.556.709.081 1.424.121 2.137.121 7.338 0 13.97-4.226 17.087-10.824.074-.057.148-.114.223-.171 10.932-1.987 19.094-11.711 19.094-22.894 0-1.071-.076-2.153-.227-3.229 4.754-4.585 7.458-10.912 7.458-17.54 0-4.351-1.144-8.565-3.32-12.285 2.177-3.72 3.32-7.934 3.32-12.285 0-5.822-2.049-11.368-5.8-15.774.515-1.991.774-4.036.774-6.098 0-9.901-6-18.785-15.07-22.527-2.83-10.532-12.514-18.039-23.539-18.039-.156 0-.313.001-.473.005-3.382-6.833-10.269-11.155-18.015-11.155-9.838 0-18.371 7.305-19.881 17.005-.16.761-.241 1.529-.241 2.286v23.26c0 1.381 1.119 2.5 2.5 2.5s2.5-1.119 2.5-2.5v-1.338c.076-.013.151-.016.227-.036.572-.15 1.162-.268 1.754-.348.658-.09 1.315-.134 1.968-.134 3.131 0 6.163 1.019 8.698 2.948 3.063 2.332 5.035 5.717 5.552 9.532.17 1.254 1.243 2.165 2.475 2.165.111 0 .225-.008.339-.023 1.368-.186 2.327-1.445 2.142-2.813-.696-5.139-3.352-9.699-7.479-12.84-3.414-2.599-7.499-3.97-11.718-3.97-.879 0-1.762.059-2.648.179-.438.059-.875.137-1.309.226v-16.807c0-.426.049-.863.144-1.301.012-.052.021-.105.029-.158 1.109-7.316 7.536-12.833 14.949-12.833 6.151 0 11.571 3.632 13.936 9.279-.138 1.783-.593 3.483-1.323 5.038 0 .001-.001.002-.002.003-.068.128-.118.26-.182.389-1.486 2.931-3.961 5.308-7.116 6.679-1.267.55-1.847 2.023-1.297 3.289.409.942 1.329 1.504 2.294 1.504.333 0 .671-.066.995-.208 1.387-.603 2.671-1.356 3.848-2.226.769 4.262 3.401 8.147 7.514 10.33.373.198.774.292 1.17.292.896 0 1.761-.482 2.21-1.329.647-1.219.184-2.733-1.036-3.38-4.54-2.409-6.346-7.963-4.185-12.567.945-1.834 1.595-3.833 1.919-5.933 8.513.114 15.969 5.845 18.331 13.917-4.55 3.887-7.067 9.627-6.78 15.667.151 3.213 1.116 6.316 2.748 9.044-2.347.89-4.439 2.366-6.078 4.356-.878 1.065-.726 2.641.34 3.519.466.383 1.029.57 1.589.57.721 0 1.437-.311 1.931-.911 1.632-1.981 3.938-3.209 6.494-3.456.314-.03.627-.045.939-.045 2.225 0 4.359.761 6.098 2.194.465.383 1.029.57 1.588.57.721 0 1.437-.31 1.931-.91.878-1.065.726-2.641-.34-3.519-2.597-2.139-5.781-3.285-9.094-3.327-1.893-2.364-3.008-5.278-3.151-8.322-.212-4.475 1.648-8.727 5.013-11.615 7.104 3.02 11.794 10.019 11.794 17.82 0 2.03-.316 4.038-.941 5.97-.283.875-.063 1.835.574 2.5 3.478 3.626 5.393 8.386 5.393 13.402 0 3.537-.959 6.954-2.766 9.958-.394.032-.789.048-1.181.048-3.549 0-6.982-1.295-9.654-3.719-.478-.434-1.079-.648-1.678-.648-.681 0-1.36.277-1.853.82-.928 1.022-.851 2.604.172 3.531 3.604 3.271 8.233 5.036 13.022 5.036.464 0 .929-.018 1.395-.051 1.666 2.914 2.542 6.2 2.542 9.594 0 5.508-2.36 10.75-6.468 14.427-1.227.329-2.468.487-3.695.487-5.172 0-10.099-2.811-12.66-7.5 1.536-2.59 2.303-5.664 1.981-8.883-.13-1.292-1.209-2.25-2.493-2.25-.08 0-.161.004-.243.011-1.374.138-2.376 1.363-2.238 2.737.527 5.274-3.334 9.994-8.608 10.521-1.374.138-2.376 1.363-2.238 2.737.129 1.289 1.216 2.251 2.484 2.251.083 0 .167-.004.252-.012 2.914-.292 5.537-1.433 7.667-3.142 3.637 5.37 9.737 8.543 16.114 8.543.951 0 1.909-.071 2.865-.215.021.353.051.706.051 1.056 0 8.592-6.141 16.071-14.444 17.849-.668-2.111-1.689-4.111-3.036-5.888-2.762-3.646-6.737-6.207-11.193-7.211-.187-.042-.373-.062-.556-.062-1.147 0-2.172.79-2.433 1.951-.304 1.347.542 2.685 1.889 2.989 1.031.232 2.022.59 2.968 1.036-1.318 2.454-3.321 4.498-5.788 5.843-2.182 1.19-4.539 1.755-6.864 1.755-4.764 0-9.394-2.368-12.12-6.576.384-.372.795-.721 1.245-1.03 1.621-1.115 3.503-1.695 5.428-1.695.587 0 1.178.054 1.768.163.152.028.304.041.453.041 1.184 0 2.236-.839 2.46-2.045.251-1.357-.646-2.662-2.003-2.913-.896-.165-1.795-.247-2.687-.247-2.929 0-5.787.88-8.252 2.576-3.215 2.212-5.377 5.543-6.087 9.382-.251 1.357.646 2.662 2.003 2.913.154.028.307.042.458.042 1.182 0 2.232-.842 2.455-2.046.023-.122.058-.24.085-.36 3.737 4.375 9.196 6.795 14.792 6.795 3.138 0 6.318-.761 9.262-2.366 3.138-1.711 5.721-4.263 7.495-7.326.439.444.859.908 1.239 1.41 1.323 1.748 2.209 3.785 2.63 5.918-2.288 4.867-7.165 7.99-12.57 7.99-.918 0-1.84-.091-2.738-.271-.165-.034-.331-.05-.496-.05-.807 0-1.576.394-2.047 1.073-2.913 4.185-7.688 6.683-12.773 6.683-7.414 0-15.555-7.082-15.555-13.532v-22.376c1.119.206 2.25.311 3.377.311zm12.172 37.104c5.576 0 10.811-2.739 14.005-7.327.187-.268.491-.429.815-.429.066 0 .132.007.202.021.996.199 2.016.3 3.032.3 5.933 0 11.399-3.475 13.927-8.852.136-.29.176-.615.114-.928-.47-2.385-1.475-4.644-2.906-6.534-.379-.501-.827-1.01-1.367-1.558-.284-.287-.669-.446-1.067-.446-.063 0-.127.004-.19.012-.464.059-.873.331-1.108.736-1.656 2.859-4.048 5.197-6.916 6.761-2.619 1.428-5.573 2.183-8.544 2.183-5.272 0-10.247-2.285-13.651-6.27-.289-.338-.708-.526-1.141-.526-.12 0-.241.014-.361.044-.551.137-.978.573-1.103 1.127l-.025.101c-.026.104-.052.208-.072.315-.088.474-.5.819-.98.819-.062 0-.124-.006-.185-.017-.542-.1-.901-.623-.801-1.165.637-3.444 2.577-6.434 5.462-8.419 2.199-1.513 4.759-2.313 7.402-2.312.803 0 1.616.075 2.414.222.542.101.901.623.801 1.165-.088.474-.502.818-.985.818-.061 0-.123-.006-.18-.016-.674-.125-1.361-.188-2.041-.188-2.243 0-4.414.677-6.278 1.959-.487.335-.957.723-1.437 1.187-.516.498-.606 1.292-.217 1.894 2.945 4.546 7.946 7.26 13.379 7.26 2.636 0 5.258-.67 7.582-1.938 2.708-1.477 4.918-3.707 6.391-6.45.195-.362.232-.789.103-1.179s-.412-.711-.784-.887c-1.086-.513-2.189-.898-3.278-1.143-.538-.121-.877-.658-.755-1.197.103-.459.502-.78.969-.78.075 0 .151.009.226.025 4.112.927 7.78 3.29 10.328 6.654 1.232 1.625 2.174 3.454 2.801 5.435.201.634.788 1.048 1.429 1.048.104 0 .21-.011.315-.033 9.057-1.939 15.63-10.063 15.63-19.316 0-.298-.018-.599-.038-.9l-.015-.244c-.025-.421-.225-.812-.553-1.077-.269-.218-.603-.335-.945-.335-.074 0-.149.006-.223.017-.875.132-1.764.198-2.642.198-5.969 0-11.528-2.948-14.872-7.885-.235-.347-.604-.58-1.019-.642-.074-.011-.149-.017-.223-.017-.339 0-.671.115-.939.33-1.984 1.593-4.362 2.568-6.874 2.819-.036.003-.071.005-.106.005-.514 0-.941-.387-.992-.901-.055-.549.347-1.04.895-1.095 2.949-.295 5.61-1.724 7.492-4.023 1.881-2.3 2.755-5.19 2.46-8.14-.027-.266.052-.526.221-.733s.409-.335.664-.361c.035-.003.069-.005.104-.005.519 0 .949.387 1.001.9.279 2.782-.337 5.537-1.779 7.968-.27.456-.28 1.02-.026 1.485 2.791 5.108 8.146 8.281 13.977 8.281 1.378 0 2.752-.181 4.084-.539.227-.061.437-.174.612-.331 4.428-3.964 6.968-9.63 6.968-15.545 0-3.628-.948-7.203-2.74-10.338-.268-.469-.767-.756-1.302-.756-.036 0-.072.001-.108.004-.436.031-.869.047-1.288.047-4.445 0-8.712-1.65-12.015-4.647-.198-.179-.314-.425-.327-.692s.079-.523.258-.721c.192-.211.455-.328.742-.328.248 0 .486.092.67.259 2.92 2.649 6.706 4.108 10.662 4.108.432 0 .87-.018 1.302-.053.482-.039.916-.308 1.165-.722 1.95-3.242 2.98-6.953 2.98-10.731 0-5.405-2.063-10.533-5.81-14.44-.255-.266-.343-.649-.23-1 .673-2.081 1.014-4.245 1.014-6.432 0-8.382-4.988-15.919-12.707-19.2-.189-.08-.389-.12-.587-.12-.352 0-.7.124-.977.362-3.75 3.218-5.768 7.892-5.534 12.824.157 3.32 1.392 6.583 3.479 9.189.281.35.703.557 1.152.562 3.013.038 5.834 1.07 8.159 2.984.426.351.487.982.136 1.407-.191.231-.473.364-.774.364-.163 0-.406-.04-.634-.227-2.014-1.659-4.452-2.536-7.052-2.536-.359 0-.723.017-1.083.052-2.955.285-5.621 1.704-7.508 3.995-.191.231-.472.364-.773.364-.163 0-.406-.04-.635-.228-.426-.351-.487-.982-.136-1.408 1.442-1.75 3.327-3.102 5.452-3.907.415-.157.739-.491.885-.91s.098-.882-.129-1.262c-1.523-2.546-2.4-5.432-2.537-8.345-.264-5.565 2.016-10.834 6.256-14.456.449-.384.631-.995.465-1.562-2.548-8.708-10.67-14.874-19.751-14.996-.007 0-.014 0-.021 0-.739 0-1.369.539-1.482 1.271-.298 1.933-.894 3.775-1.77 5.474-.009.016-.017.033-.025.05-2.52 5.37-.394 11.751 4.84 14.529.236.125.409.335.487.59s.052.526-.073.762c-.174.328-.513.532-.885.532-.164 0-.32-.039-.467-.117-3.562-1.89-6.019-5.27-6.741-9.271-.092-.51-.441-.937-.923-1.128-.179-.071-.367-.106-.553-.106-.316 0-.629.1-.891.294-1.117.825-2.313 1.517-3.555 2.057-.126.055-.26.083-.397.083-.399 0-.759-.236-.918-.602-.22-.506.013-1.096.519-1.316 3.405-1.479 6.195-4.099 7.864-7.391.036-.074.07-.148.103-.222.017-.038.032-.076.051-.113.007-.012.013-.024.019-.036.008-.015.015-.031.023-.046.819-1.744 1.31-3.615 1.461-5.56.018-.237-.02-.476-.112-.695-2.594-6.196-8.607-10.199-15.319-10.199-8.148 0-15.213 6.065-16.432 14.108 0 .002-.012.063-.012.065-.118.544-.177 1.089-.177 1.618v16.811c0 .451.203.877.552 1.162.27.22.606.338.948.338.1 0 .201-.01.301-.031.441-.09.836-.159 1.209-.209.812-.11 1.635-.166 2.447-.166 3.924 0 7.662 1.267 10.81 3.664 3.807 2.898 6.258 7.105 6.901 11.848.074.546-.31 1.051-.852 1.124-.048.006-.095.01-.142.01-.496 0-.921-.373-.988-.866-.57-4.212-2.747-7.95-6.13-10.525-2.797-2.129-6.119-3.255-9.607-3.255-.721 0-1.451.05-2.169.147-.633.086-1.267.21-1.883.37-.048.006-.096.012-.145.021-.723.121-1.252.747-1.252 1.479v1.338c0 .552-.449 1-1 1s-1-.448-1-1v-23.26c0-.653.07-1.318.209-1.977.005-.026.01-.052.014-.078 1.396-8.971 9.306-15.736 18.399-15.736 7.132 0 13.52 3.954 16.67 10.32.253.512.775.835 1.344.835h.033c.148-.003.295-.005.44-.005 10.328 0 19.412 6.961 22.09 16.928.121.451.445.819.876.997 8.591 3.545 14.142 11.843 14.142 21.141 0 1.932-.245 3.857-.727 5.723-.122.473-.006.976.31 1.348 3.509 4.122 5.442 9.378 5.442 14.802 0 4.058-1.077 8.044-3.115 11.527-.274.468-.274 1.047 0 1.515 2.038 3.483 3.115 7.469 3.115 11.528 0 6.17-2.551 12.169-6.999 16.46-.345.333-.511.812-.444 1.287.141 1.007.212 2.024.212 3.021 0 10.36-7.679 19.567-17.862 21.418-.235.043-.457.141-.647.287l-.218.167c-.191.146-.344.335-.446.552-2.86 6.053-9.034 9.965-15.731 9.965-.654 0-1.316-.038-1.967-.112-.057-.006-.113-.01-.17-.01-.447 0-.874.2-1.161.551-3.64 4.452-9.018 7.005-14.757 7.005-9.26 0-19.055-8.755-19.055-17.032v-26.129c0-.552.449-1 1-1 .315 0 .607.151.801.413.199.27.483.466.806.556 1.395.388 2.833.584 4.274.584 4.058 0 7.927-1.539 10.894-4.332 2.73-2.569 4.469-6.032 4.899-9.753.058-.505.481-.885.984-.885.04 0 .081.002.124.008.547.063.941.56.878 1.108-.483 4.187-2.441 8.086-5.514 10.979-3.342 3.147-7.697 4.88-12.264 4.88-1.018 0-2.068-.094-3.121-.281-.087-.015-.174-.023-.261-.023-.35 0-.692.122-.964.351-.34.285-.536.706-.536 1.149v22.376c.007 7.304 8.773 15.031 17.062 15.031z" fill="#149cb2"></path></g></g></g></g><g><g><g><path d="m98.329 125.141v5.719c0 2.289 1.548 4.288 3.766 4.862l4.478 1.154-2.352 3.984c-1.161 1.973-.842 4.481.776 6.099l4.044 4.044c1.619 1.618 4.128 1.938 6.102.775l3.981-2.35 1.154 4.479c.573 2.216 2.573 3.764 4.862 3.764h5.719c2.287 0 4.287-1.547 4.863-3.767l1.153-4.477 3.982 2.351c1.974 1.162 4.48.844 6.101-.776l4.044-4.044c1.618-1.618 1.938-4.126.775-6.101l-2.351-3.981 4.48-1.155c2.216-.574 3.763-2.573 3.763-4.861v-5.719c0-2.289-1.547-4.288-3.766-4.863l-4.478-1.154 2.352-3.984c1.161-1.972.842-4.48-.776-6.099l-4.044-4.044c-1.62-1.619-4.128-1.938-6.102-.775l-3.981 2.35-1.154-4.481c-.575-2.215-2.575-3.762-4.862-3.762h-5.719c-2.289 0-4.289 1.548-4.862 3.764-.001.001-.001.002-.001.003l-1.153 4.477-3.983-2.351c-1.973-1.161-4.481-.841-6.1.777l-4.045 4.044c-1.617 1.618-1.937 4.126-.774 6.101l2.351 3.981-4.479 1.154c-2.216.573-3.764 2.572-3.764 4.862zm5.014-.021 7.695-1.983c.761-.196 1.385-.738 1.686-1.464s.243-1.551-.156-2.227l-4.035-6.869 4.069-4.049 6.844 4.039c.676.399 1.501.457 2.228.157.726-.301 1.268-.925 1.464-1.686l1.982-7.695-2.421-.624 2.442.61 5.74.014 1.982 7.695c.196.761.738 1.385 1.464 1.686.727.301 1.553.243 2.228-.157l6.869-4.034 4.048 4.069-4.039 6.844c-.399.676-.457 1.501-.156 2.227s.925 1.269 1.686 1.464l7.709 2.004-.014 5.74-7.695 1.983c-.761.196-1.385.738-1.686 1.464s-.243 1.551.156 2.227l4.035 6.869-4.069 4.049-6.844-4.039c-.676-.4-1.502-.458-2.228-.157s-1.268.925-1.464 1.686l-2.004 7.709-5.74-.014-1.982-7.695c-.196-.761-.738-1.385-1.464-1.686-.308-.127-.633-.19-.957-.19-.441 0-.881.117-1.271.347l-6.869 4.034-4.048-4.069 4.039-6.844c.399-.676.457-1.501.156-2.227s-.925-1.269-1.686-1.464l-7.709-2.003z" fill="#ed9abc"></path></g></g></g><g><g><g fill="#e54890"><path d="m102.952 132.312 7.712 2.004c.302.078.554.297.674.586s.096.621-.062.89l-4.039 6.844c-.347.588-.253 1.336.228 1.82l4.048 4.069c.289.291.674.442 1.064.442.26 0 .523-.068.759-.207l6.873-4.037c.153-.09.328-.138.507-.138.132 0 .261.026.383.076.289.12.508.372.586.675l1.982 7.695c.17.661.766 1.124 1.449 1.126l5.74.014h.004c.683 0 1.28-.461 1.452-1.123l2.005-7.712c.078-.303.297-.555.587-.676.122-.05.25-.076.382-.076.179 0 .354.048.508.139l6.844 4.039c.237.14.5.208.762.208.387 0 .77-.149 1.058-.437l4.069-4.049c.485-.483.582-1.233.235-1.823l-4.037-6.872c-.159-.268-.182-.601-.062-.89s.372-.508.674-.586l7.695-1.983c.661-.17 1.124-.766 1.126-1.449l.014-5.74c.002-.685-.46-1.283-1.123-1.455l-7.712-2.005c-.302-.078-.554-.297-.674-.586s-.096-.621.062-.89l4.039-6.844c.347-.588.253-1.336-.228-1.82l-4.048-4.069c-.289-.291-.674-.442-1.064-.442-.26 0-.523.068-.759.207l-6.874 4.037c-.152.09-.327.138-.505.138-.132 0-.261-.026-.383-.076-.289-.12-.508-.372-.586-.675l-1.982-7.695c-.171-.663-.768-1.126-1.453-1.126h-5.762c-.684 0-1.282.463-1.453 1.126l-1.982 7.695c-.078.303-.297.555-.584.674-.123.051-.253.077-.386.077-.179 0-.354-.048-.507-.138l-6.844-4.039c-.237-.14-.5-.208-.762-.208-.387 0-.77.149-1.058.437l-4.069 4.049c-.485.483-.582 1.233-.235 1.823l4.037 6.872c.159.268.182.601.062.89s-.372.508-.674.586l-7.695 1.983c-.661.17-1.124.766-1.126 1.449l-.014 5.74c-.003.685.459 1.283 1.122 1.456zm.391-7.192 7.695-1.983c.761-.196 1.385-.738 1.686-1.464s.243-1.551-.156-2.227l-4.035-6.869 4.069-4.049 6.844 4.039c.389.23.829.347 1.27.347.324 0 .65-.063.958-.19.726-.301 1.268-.925 1.464-1.686l1.982-7.695h5.762l1.982 7.695c.196.761.738 1.385 1.464 1.686.308.128.633.191.958.191.442 0 .881-.117 1.27-.347l6.869-4.034 4.048 4.069-4.039 6.844c-.399.676-.457 1.501-.156 2.227s.925 1.269 1.686 1.464l7.709 2.004-.014 5.74-7.695 1.983c-.761.196-1.385.738-1.686 1.464s-.243 1.551.156 2.227l4.035 6.869-4.069 4.049-6.844-4.039c-.39-.23-.829-.347-1.271-.347-.324 0-.65.063-.957.191-.726.301-1.268.925-1.464 1.686l-2.004 7.709-5.74-.014-1.982-7.695c-.196-.761-.738-1.385-1.464-1.686-.308-.127-.633-.19-.957-.19-.441 0-.881.117-1.271.347l-6.869 4.034-4.048-4.069 4.039-6.844c.399-.676.457-1.501.156-2.227s-.925-1.269-1.686-1.464l-7.709-2.003z" fill="#e54890" style="fill: rgb(225, 96, 156);"></path><path d="m98.329 125.141v5.719c0 2.289 1.548 4.288 3.766 4.862l4.478 1.154-2.352 3.984c-1.161 1.973-.842 4.481.776 6.099l4.044 4.044c.968.967 2.254 1.47 3.553 1.47.874 0 1.754-.228 2.548-.696l3.981-2.35 1.154 4.479c.573 2.216 2.573 3.764 4.862 3.764h5.719c2.287 0 4.287-1.547 4.863-3.767l1.153-4.477 3.982 2.351c.794.467 1.674.695 2.548.695 1.299 0 2.584-.503 3.552-1.471l4.044-4.044c1.618-1.618 1.938-4.126.775-6.101l-2.351-3.981 4.48-1.155c2.216-.574 3.763-2.573 3.763-4.861v-5.719c0-2.289-1.547-4.288-3.766-4.863l-4.478-1.154 2.352-3.984c1.161-1.972.842-4.48-.776-6.099l-4.044-4.044c-.968-.968-2.254-1.471-3.552-1.471-.875 0-1.755.228-2.549.696l-3.981 2.35-1.154-4.481c-.575-2.215-2.575-3.762-4.862-3.762h-5.719c-2.289 0-4.289 1.548-4.862 3.764-.001.001-.001.002-.001.003l-1.153 4.477-3.983-2.351c-.793-.467-1.672-.694-2.546-.694-1.3 0-2.586.503-3.554 1.471l-4.045 4.044c-1.617 1.618-1.937 4.126-.774 6.101l2.351 3.981-4.479 1.154c-2.215.574-3.763 2.573-3.763 4.863zm8.618-4.564c.456-.118.831-.443 1.012-.879.18-.436.146-.931-.094-1.337l-2.35-3.979c-.815-1.385-.592-3.145.542-4.279l4.045-4.044c.666-.665 1.551-1.032 2.493-1.032.627 0 1.244.168 1.783.486l3.983 2.351c.234.138.498.208.763.208.194 0 .39-.038.574-.114.436-.18.761-.555.879-1.011l1.148-4.455c.002-.008.004-.015.006-.023.402-1.554 1.804-2.639 3.41-2.639h5.719c1.605 0 3.007 1.085 3.41 2.636l1.154 4.481c.118.457.443.831.878 1.012.184.076.38.114.574.114.265 0 .528-.07.762-.208l3.98-2.349c.542-.32 1.16-.488 1.788-.488.941 0 1.826.366 2.492 1.031l4.044 4.044c1.135 1.135 1.359 2.894.545 4.276l-2.352 3.984c-.24.406-.275.901-.094 1.336s.555.761 1.012.879l4.476 1.153c1.555.403 2.642 1.805 2.642 3.411v5.719c0 1.605-1.085 3.007-2.637 3.409l-4.48 1.155c-.456.118-.831.443-1.011.879s-.146.931.094 1.337l2.349 3.979c.815 1.385.592 3.145-.543 4.28l-4.044 4.044c-.666.666-1.551 1.032-2.492 1.032-.627 0-1.245-.169-1.786-.487l-3.982-2.351c-.234-.138-.498-.208-.763-.208-.194 0-.39.038-.574.114-.435.18-.761.555-.878 1.011l-1.153 4.474c-.404 1.557-1.807 2.644-3.411 2.644h-5.719c-1.606 0-3.008-1.085-3.41-2.638l-1.154-4.479c-.118-.457-.443-.831-.878-1.011-.184-.076-.379-.114-.574-.114-.265 0-.528.07-.762.208l-3.981 2.349c-.542.319-1.159.488-1.787.488-.942 0-1.827-.366-2.493-1.031l-4.044-4.045c-1.135-1.135-1.359-2.893-.545-4.275l2.352-3.984c.24-.406.274-.901.094-1.336-.18-.436-.555-.761-1.012-.879l-4.476-1.153c-1.555-.403-2.642-1.805-2.642-3.41v-5.719c0-1.605 1.085-3.008 2.638-3.41z" fill="#e54890" style="fill: rgb(225, 96, 156);"></path></g></g></g><g><g><g><path d="m139.75 128c0-6.479-5.271-11.75-11.75-11.75s-11.75 5.271-11.75 11.75 5.271 11.75 11.75 11.75 11.75-5.271 11.75-11.75zm-18.5 0c0-3.722 3.028-6.75 6.75-6.75s6.75 3.028 6.75 6.75-3.028 6.75-6.75 6.75-6.75-3.028-6.75-6.75z" fill="#d3d3d3"></path></g></g></g><g><g><g><g fill="#ebe7f2"><path d="m136.25 128c0-4.549-3.701-8.25-8.25-8.25s-8.25 3.701-8.25 8.25 3.701 8.25 8.25 8.25 8.25-3.701 8.25-8.25zm-15 0c0-3.722 3.028-6.75 6.75-6.75s6.75 3.028 6.75 6.75-3.028 6.75-6.75 6.75-6.75-3.028-6.75-6.75z" fill="#ebe7f2"></path><path d="m139.75 128c0-6.479-5.271-11.75-11.75-11.75s-11.75 5.271-11.75 11.75 5.271 11.75 11.75 11.75 11.75-5.271 11.75-11.75zm-22 0c0-5.652 4.598-10.25 10.25-10.25s10.25 4.598 10.25 10.25-4.598 10.25-10.25 10.25-10.25-4.598-10.25-10.25z" fill="#ebe7f2"></path></g></g></g></g></g></g></svg>