<!-- icon666.com - MILLIONS vector ICONS FREE --><svg id="Capa_1" enable-background="new 0 0 512 512" viewBox="0 0 512 512" xmlns="http://www.w3.org/2000/svg"><g><g><g><path d="m12.477 144.7-4.977 8.965v259.162c0 17.102 13.864 30.966 30.966 30.966h435.068c17.102 0 30.966-13.864 30.966-30.966v-259.162l-4.977-8.965z" fill="#ddeafb"></path></g></g><g><g><path d="m453.795 144.7v217.421c0 17.102-13.864 30.966-30.966 30.966h-415.329v19.739c0 17.102 13.864 30.966 30.966 30.966h435.068c17.102 0 30.966-13.864 30.966-30.966v-259.161l-4.977-8.965z" fill="#cbe2ff"></path></g></g><g><g><path d="m473.534 68.208h-435.068c-17.102 0-30.966 13.864-30.966 30.966v54.491h497v-54.491c0-17.102-13.864-30.966-30.966-30.966z" fill="#698ed5"></path></g></g><g><g><path d="m473.534 68.208h-19.739v85.457h50.705v-54.491c0-17.102-13.864-30.966-30.966-30.966z" fill="#4073c8"></path></g></g><g><path d="m106.326 436.292h-67.86c-12.94 0-23.466-10.526-23.466-23.466v-251.661h306.575c4.143 0 7.5-3.357 7.5-7.5s-3.357-7.5-7.5-7.5h-306.575v-46.991c0-12.939 10.526-23.466 23.466-23.466h96.704c4.143 0 7.5-3.357 7.5-7.5s-3.357-7.5-7.5-7.5h-96.704c-21.21 0-38.466 17.256-38.466 38.466v313.652c0 21.21 17.256 38.466 38.466 38.466h67.86c4.143 0 7.5-3.357 7.5-7.5s-3.357-7.5-7.5-7.5z"></path><path d="m473.534 60.708h-299.18c-4.143 0-7.5 3.357-7.5 7.5s3.357 7.5 7.5 7.5h299.181c12.939 0 23.466 10.526 23.466 23.466v46.991h-137.154c-4.143 0-7.5 3.357-7.5 7.5s3.357 7.5 7.5 7.5h137.153v251.661c0 12.939-10.526 23.466-23.466 23.466h-329.592c-4.143 0-7.5 3.357-7.5 7.5s3.357 7.5 7.5 7.5h329.592c21.21 0 38.466-17.256 38.466-38.466v-313.652c0-21.21-17.256-38.466-38.466-38.466z"></path><circle cx="63.59" cy="110.936" r="13.892"></circle><circle cx="106.326" cy="110.936" r="13.892"></circle><circle cx="149.063" cy="110.936" r="13.892"></circle><path d="m98.809 218.609c-3.193-2.639-7.921-2.189-10.56 1.003l-45.135 54.611c-2.292 2.773-2.292 6.783 0 9.557l45.135 54.611c1.483 1.794 3.626 2.722 5.785 2.722 1.683 0 3.376-.563 4.774-1.719 3.192-2.639 3.642-7.366 1.003-10.56l-41.187-49.833 41.187-49.833c2.639-3.192 2.19-7.92-1.002-10.559z"></path><path d="m416.694 339.395c1.398 1.155 3.092 1.719 4.774 1.719 2.159 0 4.302-.928 5.785-2.722l45.135-54.611c2.292-2.773 2.292-6.783 0-9.557l-45.135-54.611c-2.64-3.192-7.366-3.641-10.56-1.003-3.192 2.639-3.642 7.366-1.003 10.56l41.187 49.833-41.187 49.833c-2.637 3.192-2.188 7.92 1.004 10.559z"></path><path d="m287.778 331.162c4.143 0 7.5-3.357 7.5-7.5v-88.677c0-4.143-3.357-7.5-7.5-7.5s-7.5 3.357-7.5 7.5v35.317h-46.366v-35.317c0-4.143-3.357-7.5-7.5-7.5s-7.5 3.357-7.5 7.5v88.677c0 4.143 3.357 7.5 7.5 7.5s7.5-3.357 7.5-7.5v-38.359h46.366v38.359c0 4.143 3.358 7.5 7.5 7.5z"></path><path d="m146.143 323.662v-31.06c5.688-.031 13.263-.068 17.191-.068 18.204 0 33.015-14.591 33.015-32.524s-14.811-32.524-33.015-32.524h-24.691c-4.03-.079-7.571 3.476-7.5 7.5v88.677c0 4.143 3.357 7.5 7.5 7.5s7.5-3.358 7.5-7.501zm17.191-81.177c9.765 0 18.015 8.025 18.015 17.524s-8.25 17.524-18.015 17.524c-3.907 0-11.38.036-17.062.067-.031-5.84-.09-29.038-.107-35.116h17.169z"></path><path d="m328.703 232.813c-.211.705-.311 1.437-.322 2.173v88.677c0 4.143 3.357 7.5 7.5 7.5s7.5-3.357 7.5-7.5v-31.06c5.688-.031 13.264-.068 17.191-.068 18.204 0 33.015-14.591 33.015-32.524s-14.811-32.524-33.015-32.524h-24.691c-3.233-.041-6.276 2.223-7.178 5.326zm31.869 9.672c9.765 0 18.015 8.025 18.015 17.524s-8.25 17.524-18.015 17.524c-3.907 0-11.38.036-17.062.067-.031-5.84-.09-29.038-.107-35.116h17.169z"></path></g></g></svg>