<!-- icon666.com - MILLIONS vector ICONS FREE --><svg id="Calque_1" enable-background="new 0 0 512 512" viewBox="0 0 512 512" xmlns="http://www.w3.org/2000/svg"><g><path d="m491.308 304.132c-14.819-7.848-49.893 8.479-104.254 48.552-5.638-11.238-17.584-10.508-33.729-9.516-15.669.96-37.128 2.275-63.859-5.947-52.75-16.231-105.591-3.973-117.73-.729v-10.637c0-7.661-6.232-13.894-13.893-13.894h-13.478c-7.661 0-13.894 6.232-13.894 13.894v104.908c0 7.661 6.233 13.894 13.894 13.894h13.478c7.661 0 13.893-6.232 13.893-13.894v-9.047c11.958 1.575 68.403 9.282 92.139 17.388l1.134.388c12.784 4.37 27.019 9.236 43.751 9.236 19.315 0 41.96-6.485 69.544-27.704 10.024-7.711 20.89-15.992 31.397-24.002 21.706-16.543 44.151-33.65 60.76-46.929 26.249-20.985 28.423-24.738 28.423-26.982 0-.239.014-.555.029-.933.155-3.751.569-13.715-7.605-18.046zm-323.573 34.979c0 .007-.003.014-.003.021v80.307c0 .013.003.024.003.037v11.287c0 5.455-4.438 9.894-9.893 9.894h-13.478c-5.456 0-9.894-4.438-9.894-9.894v-104.909c0-5.455 4.438-9.894 9.894-9.894h13.478c5.455 0 9.893 4.438 9.893 9.894zm327.181-17.1c-.016.368-.028.687-.032.944-2.162 5.761-49.521 41.857-87.607 70.886-10.512 8.012-21.381 16.296-31.413 24.013-49.775 38.292-82.924 26.958-109.562 17.853l-1.135-.388c-24.772-8.459-82.4-16.206-93.432-17.639v-77.044c9.3-2.586 62.977-16.074 116.554.408 27.428 8.439 49.306 7.098 65.28 6.117 18.514-1.135 26.867-1.195 30.775 9.323.003.009.006.017.01.024.517 1.36.952 2.951 1.297 4.733.93 4.739-.012 8.687-2.879 12.066-12.9 15.212-59.228 13.834-76.674 13.317-2.319-.068-4.15-.123-5.374-.123h-21.865c-1.104 0-2 .896-2 2s.896 2 2 2h21.865c1.164 0 2.97.054 5.256.121 17.965.536 65.696 1.952 79.843-14.729 3.653-4.307 4.916-9.496 3.755-15.418-.279-1.441-.604-2.749-.987-3.956 66.587-49.206 91.601-53.752 100.845-48.854 5.946 3.152 5.62 10.996 5.48 14.346z" fill="#b5b1ba"></path><g fill="#f88da6"><path d="m121.476 380.196h-25.62c-.941-4.897-5.253-8.61-10.421-8.61-5.854 0-10.616 4.763-10.616 10.616s4.762 10.616 10.616 10.616c5.171 0 9.484-3.718 10.422-8.619h20.796c.01 0 .019-.003.029-.003h4.793c1.104 0 2-.896 2-2s-.895-2-1.999-2zm-36.04 8.622c-3.648 0-6.616-2.968-6.616-6.616s2.968-6.616 6.616-6.616c3.641 0 6.603 2.955 6.616 6.593 0 .006-.002.011-.002.017 0 .007.002.014.002.021-.009 3.642-2.973 6.601-6.616 6.601z"></path><path d="m121.476 413.155h-47.57c-1.104 0-2 .896-2 2v.001 34.152c-4.892.945-8.6 5.255-8.6 10.419 0 5.854 4.762 10.616 10.616 10.616s10.616-4.763 10.616-10.616c0-5.175-3.724-9.491-8.632-10.424v-32.147h40.748c.003 0 .006-.001.01-.001h4.812c1.104 0 2-.896 2-2s-.896-2-2-2zm-40.937 46.572c0 3.648-2.968 6.616-6.616 6.616s-6.616-2.968-6.616-6.616 2.968-6.616 6.616-6.616 6.616 2.967 6.616 6.616z"></path><path d="m121.476 347.971h-25.429l-.001-26.854c4.9-.937 8.619-5.251 8.624-10.425 0-5.854-4.762-10.615-10.616-10.615s-10.616 4.762-10.616 10.615c0 5.168 3.712 9.48 8.607 10.423v28.857c0 .141.015.278.043.411.186.912.993 1.598 1.959 1.598h22.607c.03 0 .058-.008.087-.009h4.735c1.104 0 2-.896 2-2s-.896-2.001-2-2.001zm-34.039-37.28c0-3.647 2.968-6.615 6.616-6.615s6.616 2.968 6.616 6.613c-.003 3.651-2.971 6.621-6.616 6.621-3.648.001-6.616-2.969-6.616-6.619z"></path><path d="m121.476 399.644h-73.235c-.531 0-1.04.211-1.415.586l-17.498 17.507c-1.646-1.049-3.593-1.665-5.685-1.665-5.854 0-10.616 4.763-10.616 10.616s4.762 10.616 10.616 10.616 10.616-4.763 10.616-10.616c0-2.318-.755-4.458-2.02-6.205l16.83-16.839h72.406c1.104 0 2-.896 2-2s-.895-2-1.999-2zm-97.832 33.66c-3.648 0-6.616-2.968-6.616-6.616s2.968-6.616 6.616-6.616 6.616 2.968 6.616 6.616-2.968 6.616-6.616 6.616z"></path><path d="m121.476 362.036h-48.356l-21.08-21.11c1.299-1.761 2.077-3.929 2.077-6.281 0-5.854-4.762-10.616-10.616-10.616s-10.616 4.763-10.616 10.616 4.762 10.616 10.616 10.616c2.058 0 3.974-.598 5.603-1.616l21.773 21.803c.375.376.884.587 1.415.587h49.185c1.104 0 2-.896 2-2s-.897-1.999-2.001-1.999zm-77.976-20.774c-3.648 0-6.616-2.968-6.616-6.616s2.968-6.616 6.616-6.616 6.616 2.968 6.616 6.616-2.968 6.616-6.616 6.616z"></path><path d="m205.725 306.588h175.345c3.405 0 6.176-2.77 6.176-6.174l-.001-252.583c0-3.404-2.771-6.174-6.176-6.174h-175.344c-3.405 0-6.175 2.77-6.175 6.174v252.583c-.001 3.404 2.769 6.174 6.175 6.174zm-2.176-258.756c0-1.199.976-2.174 2.175-2.174h175.344c1.2 0 2.176.976 2.176 2.174l.001 252.583c0 1.198-.976 2.174-2.176 2.174h-175.344c-1.199 0-2.175-.976-2.175-2.174v-252.583z"></path><path d="m323.863 284.678h8.351c3.404 0 6.174-2.77 6.174-6.174v-8.35c0-3.405-2.77-6.176-6.174-6.176h-8.351c-3.402 0-6.171 2.771-6.171 6.176v8.35c0 3.404 2.769 6.174 6.171 6.174zm-2.171-14.524c0-1.2.974-2.176 2.171-2.176h8.351c1.198 0 2.174.976 2.174 2.176v8.35c0 1.198-.976 2.174-2.174 2.174h-8.351c-1.197 0-2.171-.976-2.171-2.174z"></path><path d="m350.54 284.678h8.349c3.405 0 6.175-2.77 6.175-6.174v-8.35c0-3.405-2.77-6.176-6.175-6.176h-8.349c-3.406 0-6.177 2.771-6.177 6.176v8.35c0 3.404 2.771 6.174 6.177 6.174zm-2.177-14.524c0-1.2.977-2.176 2.177-2.176h8.349c1.199 0 2.175.976 2.175 2.176v8.35c0 1.198-.976 2.174-2.175 2.174h-8.349c-1.2 0-2.177-.976-2.177-2.174z"></path><path d="m217.649 93.666h152.391c3.405 0 6.175-2.771 6.175-6.177l.003-27.14c0-3.404-2.77-6.173-6.175-6.173h-152.394c-3.405 0-6.175 2.77-6.175 6.173v27.14c0 3.406 2.77 6.177 6.175 6.177zm-2.175-33.317c0-1.198.976-2.173 2.175-2.173h152.394c1.199 0 2.175.975 2.175 2.173l-.003 27.14c0 1.201-.976 2.177-2.175 2.177h-152.391c-1.199 0-2.175-.977-2.175-2.177z"></path><path d="m350.54 84.272h8.349c3.405 0 6.175-2.771 6.175-6.176v-8.351c0-3.405-2.77-6.175-6.175-6.175h-8.349c-3.406 0-6.177 2.77-6.177 6.175v8.351c0 3.405 2.771 6.176 6.177 6.176zm-2.177-14.527c0-1.199.977-2.175 2.177-2.175h8.349c1.199 0 2.175.976 2.175 2.175v8.351c0 1.2-.976 2.176-2.175 2.176h-8.349c-1.2 0-2.177-.976-2.177-2.176z"></path><path d="m323.863 84.272h8.351c3.404 0 6.174-2.771 6.174-6.176v-8.351c0-3.405-2.77-6.175-6.174-6.175h-8.351c-3.402 0-6.171 2.77-6.171 6.175v8.351c0 3.405 2.769 6.176 6.171 6.176zm-2.171-14.527c0-1.199.974-2.175 2.171-2.175h8.351c1.198 0 2.174.976 2.174 2.175v8.351c0 1.2-.976 2.176-2.174 2.176h-8.351c-1.197 0-2.171-.976-2.171-2.176z"></path><path d="m297.19 84.272h8.349c3.403 0 6.173-2.771 6.173-6.176v-8.351c0-3.405-2.77-6.175-6.173-6.175h-8.349c-3.406 0-6.177 2.77-6.177 6.175v8.351c.001 3.405 2.771 6.176 6.177 6.176zm-2.176-14.527c0-1.199.977-2.175 2.177-2.175h8.349c1.198 0 2.173.976 2.173 2.175v8.351c0 1.2-.975 2.176-2.173 2.176h-8.349c-1.2 0-2.177-.976-2.177-2.176z"></path><path d="m264.715 84.272c1.104 0 2-.896 2-2v-16.703c0-1.104-.896-2-2-2s-2 .896-2 2v16.703c0 1.104.895 2 2 2z"></path><path d="m254.51 84.272c1.104 0 2-.896 2-2v-16.703c0-1.104-.896-2-2-2s-2 .896-2 2v16.703c0 1.104.895 2 2 2z"></path><path d="m244.304 84.272c1.104 0 2-.896 2-2v-16.703c0-1.104-.896-2-2-2s-2 .896-2 2v16.703c0 1.104.896 2 2 2z"></path><path d="m234.099 84.272c1.104 0 2-.896 2-2v-16.703c0-1.104-.896-2-2-2s-2 .896-2 2v16.703c0 1.104.895 2 2 2z"></path><path d="m223.894 84.272c1.104 0 2-.896 2-2v-16.703c0-1.104-.896-2-2-2s-2 .896-2 2v16.703c0 1.104.895 2 2 2z"></path><path d="m217.649 143.767h152.391c3.405 0 6.175-2.77 6.175-6.175l.003-27.137c0-3.406-2.77-6.176-6.175-6.176h-152.394c-3.405 0-6.175 2.771-6.175 6.176v27.137c0 3.405 2.77 6.175 6.175 6.175zm-2.175-33.311c0-1.2.976-2.176 2.175-2.176h152.394c1.199 0 2.175.976 2.175 2.176l-.003 27.137c0 1.199-.976 2.175-2.175 2.175h-152.391c-1.199 0-2.175-.976-2.175-2.175z"></path><path d="m323.863 134.372h8.351c3.404 0 6.174-2.77 6.174-6.175v-8.349c0-3.406-2.77-6.176-6.174-6.176h-8.351c-3.402 0-6.171 2.771-6.171 6.176v8.349c0 3.405 2.769 6.175 6.171 6.175zm-2.171-14.525c0-1.2.974-2.176 2.171-2.176h8.351c1.198 0 2.174.976 2.174 2.176v8.349c0 1.199-.976 2.175-2.174 2.175h-8.351c-1.197 0-2.171-.976-2.171-2.175z"></path><path d="m297.19 134.372h8.349c3.403 0 6.173-2.77 6.173-6.175v-8.349c0-3.406-2.77-6.176-6.173-6.176h-8.349c-3.406 0-6.177 2.771-6.177 6.176v8.349c.001 3.405 2.771 6.175 6.177 6.175zm-2.176-14.525c0-1.2.977-2.176 2.177-2.176h8.349c1.198 0 2.173.976 2.173 2.176v8.349c0 1.199-.975 2.175-2.173 2.175h-8.349c-1.2 0-2.177-.976-2.177-2.175z"></path><path d="m350.54 134.372h8.349c3.405 0 6.175-2.77 6.175-6.175v-8.349c0-3.406-2.77-6.176-6.175-6.176h-8.349c-3.406 0-6.177 2.771-6.177 6.176v8.349c0 3.405 2.771 6.175 6.177 6.175zm-2.177-14.525c0-1.2.977-2.176 2.177-2.176h8.349c1.199 0 2.175.976 2.175 2.176v8.349c0 1.199-.976 2.175-2.175 2.175h-8.349c-1.2 0-2.177-.976-2.177-2.175z"></path><path d="m264.715 134.372c1.104 0 2-.896 2-2v-16.7c0-1.104-.896-2-2-2s-2 .896-2 2v16.7c0 1.104.895 2 2 2z"></path><path d="m254.51 134.372c1.104 0 2-.896 2-2v-16.7c0-1.104-.896-2-2-2s-2 .896-2 2v16.7c0 1.104.895 2 2 2z"></path><path d="m244.304 134.372c1.104 0 2-.896 2-2v-16.7c0-1.104-.896-2-2-2s-2 .896-2 2v16.7c0 1.104.896 2 2 2z"></path><path d="m234.099 134.372c1.104 0 2-.896 2-2v-16.7c0-1.104-.896-2-2-2s-2 .896-2 2v16.7c0 1.104.895 2 2 2z"></path><path d="m223.894 134.372c1.104 0 2-.896 2-2v-16.7c0-1.104-.896-2-2-2s-2 .896-2 2v16.7c0 1.104.895 2 2 2z"></path><path d="m217.649 193.867h152.391c3.405 0 6.175-2.77 6.175-6.175l.003-27.137c0-3.406-2.77-6.176-6.175-6.176h-152.394c-3.405 0-6.175 2.771-6.175 6.176v27.137c0 3.405 2.77 6.175 6.175 6.175zm-2.175-33.312c0-1.2.976-2.176 2.175-2.176h152.394c1.199 0 2.175.976 2.175 2.176l-.003 27.137c0 1.2-.976 2.175-2.175 2.175h-152.391c-1.199 0-2.175-.976-2.175-2.175z"></path><path d="m323.863 184.474h8.351c3.404 0 6.174-2.77 6.174-6.174v-8.351c0-3.404-2.77-6.174-6.174-6.174h-8.351c-3.402 0-6.171 2.77-6.171 6.174v8.351c0 3.404 2.769 6.174 6.171 6.174zm-2.171-14.525c0-1.199.974-2.174 2.171-2.174h8.351c1.198 0 2.174.975 2.174 2.174v8.351c0 1.199-.976 2.174-2.174 2.174h-8.351c-1.197 0-2.171-.976-2.171-2.174z"></path><path d="m297.19 184.474h8.349c3.403 0 6.173-2.77 6.173-6.174v-8.351c0-3.404-2.77-6.174-6.173-6.174h-8.349c-3.406 0-6.177 2.77-6.177 6.174v8.351c.001 3.404 2.771 6.174 6.177 6.174zm-2.176-14.525c0-1.199.977-2.174 2.177-2.174h8.349c1.198 0 2.173.975 2.173 2.174v8.351c0 1.199-.975 2.174-2.173 2.174h-8.349c-1.2 0-2.177-.976-2.177-2.174z"></path><path d="m350.54 184.474h8.349c3.405 0 6.175-2.77 6.175-6.174v-8.351c0-3.404-2.77-6.174-6.175-6.174h-8.349c-3.406 0-6.177 2.77-6.177 6.174v8.351c0 3.404 2.771 6.174 6.177 6.174zm-2.177-14.525c0-1.199.977-2.174 2.177-2.174h8.349c1.199 0 2.175.975 2.175 2.174v8.351c0 1.199-.976 2.174-2.175 2.174h-8.349c-1.2 0-2.177-.976-2.177-2.174z"></path><path d="m264.715 184.474c1.104 0 2-.896 2-2v-16.7c0-1.104-.896-2-2-2s-2 .896-2 2v16.7c0 1.104.895 2 2 2z"></path><path d="m254.51 184.474c1.104 0 2-.896 2-2v-16.7c0-1.104-.896-2-2-2s-2 .896-2 2v16.7c0 1.104.895 2 2 2z"></path><path d="m244.304 184.474c1.104 0 2-.896 2-2v-16.7c0-1.104-.896-2-2-2s-2 .896-2 2v16.7c0 1.104.896 2 2 2z"></path><path d="m234.099 184.474c1.104 0 2-.896 2-2v-16.7c0-1.104-.896-2-2-2s-2 .896-2 2v16.7c0 1.104.895 2 2 2z"></path><path d="m223.894 184.474c1.104 0 2-.896 2-2v-16.7c0-1.104-.896-2-2-2s-2 .896-2 2v16.7c0 1.104.895 2 2 2z"></path><path d="m323.863 234.575h8.351c3.404 0 6.174-2.77 6.174-6.175v-8.348c0-3.405-2.77-6.175-6.174-6.175h-8.351c-3.402 0-6.171 2.77-6.171 6.175v8.348c0 3.405 2.769 6.175 6.171 6.175zm-2.171-14.523c0-1.199.974-2.175 2.171-2.175h8.351c1.198 0 2.174.976 2.174 2.175v8.348c0 1.2-.976 2.175-2.174 2.175h-8.351c-1.197 0-2.171-.976-2.171-2.175z"></path><path d="m350.54 234.575h8.349c3.405 0 6.175-2.77 6.175-6.175v-8.348c0-3.405-2.77-6.175-6.175-6.175h-8.349c-3.406 0-6.177 2.77-6.177 6.175v8.348c0 3.405 2.771 6.175 6.177 6.175zm-2.177-14.523c0-1.199.977-2.175 2.177-2.175h8.349c1.199 0 2.175.976 2.175 2.175v8.348c0 1.2-.976 2.175-2.175 2.175h-8.349c-1.2 0-2.177-.976-2.177-2.175z"></path><path d="m217.649 243.969h152.391c3.405 0 6.175-2.771 6.175-6.176l.003-27.134c0-3.406-2.77-6.176-6.175-6.176h-152.394c-3.405 0-6.175 2.771-6.175 6.176v27.134c0 3.405 2.77 6.176 6.175 6.176zm-2.175-33.311c0-1.2.976-2.176 2.175-2.176h152.394c1.199 0 2.175.976 2.175 2.176l-.003 27.134c0 1.2-.976 2.176-2.175 2.176h-152.391c-1.199 0-2.175-.976-2.175-2.176z"></path><path d="m297.19 234.575h8.349c3.403 0 6.173-2.77 6.173-6.175v-8.348c0-3.405-2.77-6.175-6.173-6.175h-8.349c-3.406 0-6.177 2.77-6.177 6.175v8.348c.001 3.405 2.771 6.175 6.177 6.175zm-2.176-14.523c0-1.199.977-2.175 2.177-2.175h8.349c1.198 0 2.173.976 2.173 2.175v8.348c0 1.2-.975 2.175-2.173 2.175h-8.349c-1.2 0-2.177-.976-2.177-2.175z"></path><path d="m264.715 234.578c1.104 0 2-.896 2-2v-16.7c0-1.104-.896-2-2-2s-2 .896-2 2v16.7c0 1.104.895 2 2 2z"></path><path d="m254.51 234.578c1.104 0 2-.896 2-2v-16.7c0-1.104-.896-2-2-2s-2 .896-2 2v16.7c0 1.104.895 2 2 2z"></path><path d="m244.304 234.578c1.104 0 2-.896 2-2v-16.7c0-1.104-.896-2-2-2s-2 .896-2 2v16.7c0 1.104.896 2 2 2z"></path><path d="m234.099 234.578c1.104 0 2-.896 2-2v-16.7c0-1.104-.896-2-2-2s-2 .896-2 2v16.7c0 1.104.895 2 2 2z"></path><path d="m223.894 234.578c1.104 0 2-.896 2-2v-16.7c0-1.104-.896-2-2-2s-2 .896-2 2v16.7c0 1.104.895 2 2 2z"></path><path d="m217.649 294.068h152.391c3.405 0 6.175-2.77 6.175-6.174l.003-27.135c0-3.405-2.77-6.176-6.175-6.176h-152.394c-3.405 0-6.175 2.771-6.175 6.176v27.135c0 3.405 2.77 6.174 6.175 6.174zm-2.175-33.308c0-1.2.976-2.176 2.175-2.176h152.394c1.199 0 2.175.976 2.175 2.176l-.003 27.135c0 1.198-.976 2.174-2.175 2.174h-152.391c-1.199 0-2.175-.976-2.175-2.174z"></path><path d="m297.19 284.678h8.349c3.403 0 6.173-2.77 6.173-6.174v-8.35c0-3.405-2.77-6.176-6.173-6.176h-8.349c-3.406 0-6.177 2.771-6.177 6.176v8.35c.001 3.404 2.771 6.174 6.177 6.174zm-2.176-14.524c0-1.2.977-2.176 2.177-2.176h8.349c1.198 0 2.173.976 2.173 2.176v8.35c0 1.198-.975 2.174-2.173 2.174h-8.349c-1.18 0-2.177-.995-2.177-2.174z"></path><path d="m264.715 284.681c1.104 0 2-.896 2-2v-16.701c0-1.104-.896-2-2-2s-2 .896-2 2v16.701c0 1.104.895 2 2 2z"></path><path d="m254.51 284.681c1.104 0 2-.896 2-2v-16.701c0-1.104-.896-2-2-2s-2 .896-2 2v16.701c0 1.104.895 2 2 2z"></path><path d="m244.304 284.681c1.104 0 2-.896 2-2v-16.701c0-1.104-.896-2-2-2s-2 .896-2 2v16.701c0 1.104.896 2 2 2z"></path><path d="m234.099 284.681c1.104 0 2-.896 2-2v-16.701c0-1.104-.896-2-2-2s-2 .896-2 2v16.701c0 1.104.895 2 2 2z"></path><path d="m223.894 284.681c1.104 0 2-.896 2-2v-16.701c0-1.104-.896-2-2-2s-2 .896-2 2v16.701c0 1.104.895 2 2 2z"></path></g><path d="m415.334 132.727h42.164c.131 0 .261-.013.389-.039.054-.011.104-.032.156-.047.073-.021.146-.037.216-.066.062-.025.118-.062.177-.094.056-.03.115-.054.168-.09.11-.073.212-.157.307-.251l16.411-16.411c.126-.126.226-.271.313-.423.022-.038.042-.076.062-.116.076-.155.139-.315.172-.484 0-.002 0-.003 0-.005.025-.126.038-.255.038-.386v-59.525c0-1.104-.896-2-2-2h-58.575c-1.104 0-2 .896-2 2v75.937c.002 1.105.897 2 2.002 2zm44.164-6.828v-9.583h9.583zm-42.164-69.109h54.575v55.526h-14.411c-1.104 0-2 .896-2 2v14.411h-38.164z" fill="#b5b1ba"></path><path d="m423.54 67.96h42.163c1.104 0 2-.896 2-2s-.896-2-2-2h-42.163c-1.104 0-2 .896-2 2s.896 2 2 2z" fill="#b5b1ba"></path><path d="m423.54 76.471h42.163c1.104 0 2-.896 2-2s-.896-2-2-2h-42.163c-1.104 0-2 .896-2 2s.896 2 2 2z" fill="#b5b1ba"></path><path d="m423.54 84.983h42.163c1.104 0 2-.896 2-2s-.896-2-2-2h-42.163c-1.104 0-2 .896-2 2s.896 2 2 2z" fill="#b5b1ba"></path><path d="m423.54 93.494h42.163c1.104 0 2-.896 2-2s-.896-2-2-2h-42.163c-1.104 0-2 .896-2 2s.896 2 2 2z" fill="#b5b1ba"></path><path d="m467.703 100.006c0-1.104-.896-2-2-2h-42.163c-1.104 0-2 .896-2 2s.896 2 2 2h42.163c1.105 0 2-.895 2-2z" fill="#b5b1ba"></path><path d="m446.834 220.583c-18.472 0-33.5 15.028-33.5 33.5s15.028 33.5 33.5 33.5 33.499-15.028 33.499-33.5-15.027-33.5-33.499-33.5zm0 63c-16.267 0-29.5-13.233-29.5-29.5 0-16.266 13.233-29.5 29.5-29.5 16.266 0 29.499 13.234 29.499 29.5 0 16.267-13.233 29.5-29.499 29.5z" fill="#b5b1ba"></path><path d="m464.737 252.351-27.488-15.87c-.619-.357-1.381-.357-2 0s-1 1.018-1 1.732v31.739c0 .715.381 1.375 1 1.732.31.179.654.268 1 .268s.69-.089 1-.268l27.488-15.87c.619-.357 1-1.018 1-1.732s-.381-1.374-1-1.731zm-26.488 14.137v-24.811l21.488 12.406z" fill="#b5b1ba"></path><path d="m411.474 208.082h2.728.004s.003 0 .004 0h63.562c5.626 0 10.203-4.577 10.203-10.202v-41.975c0-5.625-4.577-10.202-10.203-10.202h-66.297c-5.626 0-10.202 4.577-10.202 10.202v41.975c-.002 5.625 4.575 10.202 10.201 10.202zm72.5-10.202c0 3.419-2.782 6.202-6.203 6.202h-60.097l9.871-17.074 5.311 4.969c.007.007.014.014.021.02l6.573 6.15c.806.755 2.071.713 2.826-.094.755-.806.713-2.072-.094-2.827l-5.457-5.106 12.776-22.102 10.315 9.651c.009.008.017.016.026.024l11.271 10.546c.807.754 2.071.713 2.827-.094.754-.807.712-2.072-.095-2.827l-10.157-9.504 8.512-14.727 11.773 11.012v25.781zm-78.703-41.974c0-3.419 2.782-6.202 6.202-6.202h66.297c3.421 0 6.203 2.782 6.203 6.202v10.717l-10.88-10.175c-.445-.417-1.054-.604-1.66-.518-.604.09-1.133.45-1.438.978l-9.306 16.102-10.295-9.633c-.445-.417-1.059-.604-1.659-.518-.604.089-1.133.45-1.438.978l-13.572 23.478-5.288-4.947c-.445-.417-1.059-.606-1.659-.518-.604.09-1.133.45-1.438.978l-12.288 21.255h-1.58c-3.42 0-6.202-2.782-6.202-6.202v-41.975z" fill="#b5b1ba"></path><path d="m420.82 175.243c5.936 0 10.765-4.829 10.765-10.765s-4.829-10.765-10.765-10.765c-5.937 0-10.766 4.829-10.766 10.765s4.83 10.765 10.766 10.765zm0-17.531c3.73 0 6.765 3.035 6.765 6.765s-3.034 6.765-6.765 6.765-6.766-3.035-6.766-6.765 3.036-6.765 6.766-6.765z" fill="#b5b1ba"></path></g></svg>